G04*
G04 #@! TF.GenerationSoftware,Altium Limited,Altium Designer,19.0.4 (130)*
G04*
G04 Layer_Color=16711935*
%FSLAX24Y24*%
%MOIN*%
G70*
G01*
G75*
%ADD29C,0.0631*%
%ADD30R,0.0631X0.0631*%
%ADD31C,0.1300*%
%ADD32C,0.0709*%
%ADD33C,0.1693*%
%ADD47O,0.0261X0.0727*%
%ADD48R,0.0394X0.0355*%
D29*
X48433Y37465D02*
D03*
D30*
X46512D02*
D03*
D31*
X53692Y44625D02*
D03*
X58865Y44625D02*
D03*
X46217Y44625D02*
D03*
X51390Y44625D02*
D03*
X38742Y44625D02*
D03*
X43915Y44625D02*
D03*
D32*
X57664Y43558D02*
D03*
X56679D02*
D03*
X55892D02*
D03*
X54908D02*
D03*
X50189D02*
D03*
X49204D02*
D03*
X48417D02*
D03*
X47433D02*
D03*
X42714D02*
D03*
X41729D02*
D03*
X40942D02*
D03*
X39958D02*
D03*
D33*
X63458Y36392D02*
D03*
Y45649D02*
D03*
X34493Y45686D02*
D03*
Y36415D02*
D03*
D47*
X47234Y41958D02*
D03*
X47734D02*
D03*
X48234D02*
D03*
X48734D02*
D03*
X49234D02*
D03*
X49734D02*
D03*
X50234D02*
D03*
X50734D02*
D03*
X47234Y39696D02*
D03*
X47734D02*
D03*
X48234D02*
D03*
X48734D02*
D03*
X49234D02*
D03*
X49734D02*
D03*
X50234D02*
D03*
X50734D02*
D03*
D48*
X50890Y37882D02*
D03*
Y38433D02*
D03*
X51787Y37882D02*
D03*
Y38433D02*
D03*
M02*
