G04*
G04 #@! TF.GenerationSoftware,Altium Limited,Altium Designer,19.0.4 (130)*
G04*
G04 Layer_Color=255*
%FSLAX24Y24*%
%MOIN*%
G70*
G01*
G75*
%ADD14R,0.0571X0.0236*%
%ADD15R,0.0571X0.0118*%
%ADD16R,0.0571X0.0709*%
%ADD17R,0.0472X0.0709*%
%ADD18R,0.0315X0.0315*%
%ADD19R,0.0315X0.0354*%
%ADD20R,0.1421X0.0496*%
%ADD34R,0.0318X0.0340*%
%ADD38C,0.0591*%
%ADD39R,0.0591X0.0591*%
%ADD40C,0.1260*%
%ADD41C,0.0669*%
%ADD42C,0.1654*%
D14*
X61434Y39463D02*
D03*
Y42022D02*
D03*
Y39778D02*
D03*
Y41707D02*
D03*
X36431Y42071D02*
D03*
Y39512D02*
D03*
Y41756D02*
D03*
Y39827D02*
D03*
D15*
X61434Y40054D02*
D03*
Y40250D02*
D03*
Y40447D02*
D03*
Y40644D02*
D03*
Y40841D02*
D03*
Y41038D02*
D03*
Y41235D02*
D03*
Y41432D02*
D03*
X36431Y41481D02*
D03*
Y41284D02*
D03*
Y41087D02*
D03*
Y40890D02*
D03*
Y40693D02*
D03*
Y40496D02*
D03*
Y40300D02*
D03*
Y40103D02*
D03*
D16*
X61795Y38746D02*
D03*
Y42739D02*
D03*
X36071Y42788D02*
D03*
Y38796D02*
D03*
D17*
X63440Y38746D02*
D03*
Y42739D02*
D03*
X34425Y42788D02*
D03*
Y38796D02*
D03*
D18*
X37954Y37386D02*
D03*
X37284D02*
D03*
D19*
X60459Y39512D02*
D03*
X59908D02*
D03*
X37378Y41756D02*
D03*
X37929D02*
D03*
D20*
X55431Y40592D02*
D03*
X58026D02*
D03*
X53076Y40592D02*
D03*
X50481D02*
D03*
X45181Y40592D02*
D03*
X47776D02*
D03*
X42776Y40592D02*
D03*
X40181D02*
D03*
D34*
X37360Y39654D02*
D03*
X37953D02*
D03*
X60483Y40252D02*
D03*
X59890D02*
D03*
Y41432D02*
D03*
X60483D02*
D03*
X37953Y40307D02*
D03*
X37360D02*
D03*
Y41047D02*
D03*
X37953D02*
D03*
D38*
X48433Y37465D02*
D03*
D39*
X46512D02*
D03*
D40*
X53692Y44625D02*
D03*
X58865Y44625D02*
D03*
X46217Y44625D02*
D03*
X51390Y44625D02*
D03*
X38742Y44625D02*
D03*
X43915Y44625D02*
D03*
D41*
X57664Y43558D02*
D03*
X56679D02*
D03*
X55892D02*
D03*
X54908D02*
D03*
X50189D02*
D03*
X49204D02*
D03*
X48417D02*
D03*
X47433D02*
D03*
X42714D02*
D03*
X41729D02*
D03*
X40942D02*
D03*
X39958D02*
D03*
D42*
X63458Y36392D02*
D03*
Y45649D02*
D03*
X34493Y45686D02*
D03*
Y36415D02*
D03*
M02*
