G04*
G04 #@! TF.GenerationSoftware,Altium Limited,Altium Designer,19.0.4 (130)*
G04*
G04 Layer_Color=8388736*
%FSLAX24Y24*%
%MOIN*%
G70*
G01*
G75*
%ADD12C,0.0060*%
%ADD49C,0.0118*%
%ADD52C,0.0098*%
G36*
X37150Y37405D02*
X37410D01*
Y37345D01*
X37150D01*
Y37405D01*
D01*
D02*
G37*
G36*
X37988Y37277D02*
Y37537D01*
X38048D01*
Y37277D01*
X37988D01*
D01*
D02*
G37*
G36*
X39943Y40641D02*
Y40543D01*
X40335D01*
Y40641D01*
X39943D01*
D01*
D02*
G37*
G36*
X42867D02*
X43014D01*
Y40543D01*
X42867D01*
Y40265D01*
X42769D01*
Y40543D01*
X42622D01*
Y40641D01*
X42769D01*
Y40919D01*
X42867D01*
Y40641D01*
D02*
G37*
G36*
X45188D02*
X45335D01*
Y40543D01*
X45188D01*
Y40265D01*
X45090D01*
Y40543D01*
X44942D01*
Y40641D01*
X45090D01*
Y40919D01*
X45188D01*
Y40641D01*
D02*
G37*
G36*
X48014Y40543D02*
Y40641D01*
X47622D01*
Y40543D01*
X48014D01*
D01*
D02*
G37*
G36*
X50243Y40641D02*
Y40543D01*
X50635D01*
Y40641D01*
X50243D01*
D01*
D02*
G37*
G36*
X53167D02*
X53314D01*
Y40543D01*
X53167D01*
Y40265D01*
X53069D01*
Y40543D01*
X52922D01*
Y40641D01*
X53069D01*
Y40919D01*
X53167D01*
Y40641D01*
D02*
G37*
G36*
X55438D02*
X55585D01*
Y40543D01*
X55438D01*
Y40265D01*
X55340D01*
Y40543D01*
X55192D01*
Y40641D01*
X55340D01*
Y40919D01*
X55438D01*
Y40641D01*
D02*
G37*
G36*
X58264Y40543D02*
Y40641D01*
X57872D01*
Y40543D01*
X58264D01*
D01*
D02*
G37*
D12*
X23449Y36406D02*
X23549Y36306D01*
X23749D01*
X23849Y36406D01*
Y36806D01*
X23749Y36906D01*
X23549D01*
X23449Y36806D01*
Y36706D01*
X23549Y36606D01*
X23849D01*
X24049Y36806D02*
X24149Y36906D01*
X24349D01*
X24449Y36806D01*
Y36706D01*
X24349Y36606D01*
X24249D01*
X24349D01*
X24449Y36506D01*
Y36406D01*
X24349Y36306D01*
X24149D01*
X24049Y36406D01*
X24648Y36906D02*
X25048D01*
Y36806D01*
X24648Y36406D01*
Y36306D01*
X25248D02*
Y36406D01*
X25348D01*
Y36306D01*
X25248D01*
X25748Y36406D02*
X25848Y36306D01*
X26048D01*
X26148Y36406D01*
Y36806D01*
X26048Y36906D01*
X25848D01*
X25748Y36806D01*
Y36706D01*
X25848Y36606D01*
X26148D01*
X26748Y36906D02*
X26548Y36806D01*
X26348Y36606D01*
Y36406D01*
X26448Y36306D01*
X26648D01*
X26748Y36406D01*
Y36506D01*
X26648Y36606D01*
X26348D01*
X27348Y36906D02*
X27148Y36806D01*
X26948Y36606D01*
Y36406D01*
X27048Y36306D01*
X27248D01*
X27348Y36406D01*
Y36506D01*
X27248Y36606D01*
X26948D01*
X28347Y36306D02*
X28147Y36506D01*
Y36706D01*
X28347Y36906D01*
X28647Y36306D02*
Y36706D01*
X28747D01*
X28847Y36606D01*
Y36306D01*
Y36606D01*
X28947Y36706D01*
X29047Y36606D01*
Y36306D01*
X29247D02*
X29447D01*
X29347D01*
Y36706D01*
X29247D01*
X29747Y36306D02*
X29947D01*
X29847D01*
Y36906D01*
X29747D01*
X30247Y36306D02*
X30447Y36506D01*
Y36706D01*
X30247Y36906D01*
X34493Y26718D02*
X34892D01*
Y26618D01*
X34493Y26218D01*
Y26118D01*
X35092Y26618D02*
X35192Y26718D01*
X35392D01*
X35492Y26618D01*
Y26518D01*
X35392Y26418D01*
X35292D01*
X35392D01*
X35492Y26318D01*
Y26218D01*
X35392Y26118D01*
X35192D01*
X35092Y26218D01*
X35692Y26118D02*
Y26218D01*
X35792D01*
Y26118D01*
X35692D01*
X36592Y26718D02*
X36192D01*
Y26418D01*
X36392Y26518D01*
X36492D01*
X36592Y26418D01*
Y26218D01*
X36492Y26118D01*
X36292D01*
X36192Y26218D01*
X36792Y26718D02*
X37192D01*
Y26618D01*
X36792Y26218D01*
Y26118D01*
X37392Y26618D02*
X37492Y26718D01*
X37692D01*
X37792Y26618D01*
Y26518D01*
X37692Y26418D01*
X37592D01*
X37692D01*
X37792Y26318D01*
Y26218D01*
X37692Y26118D01*
X37492D01*
X37392Y26218D01*
X38791Y26118D02*
X38591Y26318D01*
Y26518D01*
X38791Y26718D01*
X39091Y26118D02*
Y26518D01*
X39191D01*
X39291Y26418D01*
Y26118D01*
Y26418D01*
X39391Y26518D01*
X39491Y26418D01*
Y26118D01*
X39691D02*
Y26518D01*
X39791D01*
X39891Y26418D01*
Y26118D01*
Y26418D01*
X39991Y26518D01*
X40091Y26418D01*
Y26118D01*
X40291D02*
X40491Y26318D01*
Y26518D01*
X40291Y26718D01*
D49*
X47293Y42224D02*
G03*
X47293Y42224I-59J0D01*
G01*
D52*
X62053Y39605D02*
G03*
X62053Y39605I-49J0D01*
G01*
X62053Y41880D02*
G03*
X62053Y41880I-49J0D01*
G01*
X35911Y41929D02*
G03*
X35911Y41929I-49J0D01*
G01*
X35912Y39654D02*
G03*
X35912Y39654I-49J0D01*
G01*
M02*
