G04*
G04 #@! TF.GenerationSoftware,Altium Limited,Altium Designer,19.0.4 (130)*
G04*
G04 Layer_Color=32896*
%FSLAX24Y24*%
%MOIN*%
G70*
G01*
G75*
%ADD11C,0.0100*%
%ADD12C,0.0060*%
%ADD49C,0.0118*%
G36*
X57930Y38601D02*
X57962Y38581D01*
X57977Y38567D01*
X57991Y38556D01*
X57996Y38552D01*
X57998Y38545D01*
X58000Y38538D01*
X58009Y38539D01*
X58019Y38539D01*
X58032Y38534D01*
X58046Y38528D01*
X58051Y38534D01*
X58055Y38539D01*
X58057Y38542D01*
X58060Y38544D01*
X58068Y38548D01*
X58078Y38554D01*
X58084Y38561D01*
X58093Y38570D01*
X58113Y38574D01*
X58124Y38576D01*
X58131Y38579D01*
X58155Y38578D01*
X58175Y38567D01*
X58190Y38555D01*
X58212Y38543D01*
X58223Y38536D01*
X58235Y38522D01*
X58241Y38515D01*
X58248Y38509D01*
X58257Y38504D01*
X58267Y38508D01*
X58277Y38512D01*
X58286Y38518D01*
X58303Y38526D01*
X58322Y38526D01*
X58332Y38525D01*
X58340Y38526D01*
X58347Y38526D01*
X58355Y38524D01*
X58363Y38521D01*
X58370Y38522D01*
X58376Y38523D01*
X58381Y38520D01*
X58392Y38514D01*
X58406Y38509D01*
X58415Y38506D01*
X58421Y38502D01*
X58432Y38487D01*
X58443Y38471D01*
X58447Y38463D01*
X58452Y38458D01*
X58462Y38441D01*
X58468Y38424D01*
X58469Y38419D01*
X58472Y38414D01*
X58475Y38381D01*
X58472Y38346D01*
X58470Y38334D01*
X58477Y38333D01*
X58494Y38340D01*
X58509Y38354D01*
X58514Y38359D01*
X58528Y38364D01*
X58541Y38369D01*
X58551Y38374D01*
X58559Y38377D01*
X58566Y38378D01*
X58577Y38380D01*
X58585Y38385D01*
X58595Y38387D01*
X58621Y38381D01*
X58633Y38378D01*
X58649Y38377D01*
X58666Y38375D01*
X58673Y38370D01*
X58686Y38362D01*
X58701Y38357D01*
X58704Y38357D01*
X58707Y38355D01*
X58712Y38352D01*
X58719Y38348D01*
X58727Y38342D01*
X58733Y38334D01*
X58739Y38326D01*
X58745Y38320D01*
X58750Y38315D01*
X58754Y38312D01*
X58760Y38305D01*
X58772Y38292D01*
X58789Y38275D01*
X58793Y38259D01*
X58795Y38246D01*
X58796Y38239D01*
X58797Y38236D01*
X58800Y38233D01*
X58803Y38229D01*
X58807Y38223D01*
X58816Y38213D01*
X58835Y38211D01*
X58849Y38210D01*
X58856Y38207D01*
X58860Y38205D01*
X58864Y38206D01*
X58880Y38208D01*
X58895Y38206D01*
X58910Y38198D01*
X58932Y38195D01*
X58949Y38195D01*
X58957Y38186D01*
X58964Y38180D01*
X58968Y38179D01*
X58979Y38181D01*
X58990Y38178D01*
X58998Y38174D01*
X59011Y38173D01*
X59024Y38173D01*
X59030Y38172D01*
X59037Y38170D01*
X59046Y38168D01*
X59056Y38166D01*
X59061Y38161D01*
X59075Y38146D01*
X59091Y38135D01*
X59096Y38132D01*
X59100Y38129D01*
X59104Y38126D01*
X59110Y38122D01*
X59117Y38116D01*
X59125Y38108D01*
X59132Y38099D01*
X59142Y38091D01*
X59150Y38084D01*
X59152Y38078D01*
X59156Y38067D01*
X59168Y38064D01*
X59176Y38063D01*
X59178Y38057D01*
X59183Y38041D01*
X59189Y38033D01*
X59194Y38028D01*
X59197Y38022D01*
X59203Y38011D01*
X59216Y37996D01*
X59226Y37976D01*
X59229Y37946D01*
X59228Y37907D01*
X59223Y37891D01*
X59220Y37882D01*
X59218Y37878D01*
X59214Y37871D01*
X59203Y37860D01*
X59186Y37838D01*
X59186Y37822D01*
X59188Y37815D01*
X59189Y37807D01*
X59190Y37799D01*
X59193Y37793D01*
X59205Y37774D01*
X59213Y37756D01*
X59215Y37752D01*
X59220Y37747D01*
X59230Y37698D01*
X59221Y37653D01*
X59218Y37648D01*
X59215Y37640D01*
X59208Y37627D01*
X59198Y37622D01*
X59191Y37620D01*
X59187Y37615D01*
X59183Y37611D01*
X59178Y37608D01*
X59174Y37605D01*
X59172Y37601D01*
X59168Y37597D01*
X59164Y37593D01*
X59159Y37590D01*
X59157Y37586D01*
X59154Y37569D01*
X59154Y37552D01*
X59153Y37541D01*
X59148Y37533D01*
X59143Y37526D01*
X59142Y37519D01*
X59141Y37511D01*
X59137Y37504D01*
X59133Y37496D01*
X59128Y37487D01*
X59108Y37461D01*
X59078Y37453D01*
X59072Y37452D01*
X59067Y37448D01*
X59022Y37439D01*
X58977Y37447D01*
X58972Y37451D01*
X58961Y37452D01*
X58951Y37452D01*
X58946Y37456D01*
X58942Y37460D01*
X58937Y37464D01*
X58928Y37471D01*
X58917Y37482D01*
X58898Y37495D01*
X58887Y37490D01*
X58882Y37484D01*
X58876Y37477D01*
X58869Y37470D01*
X58866Y37463D01*
X58863Y37454D01*
X58855Y37444D01*
X58850Y37438D01*
X58848Y37430D01*
X58848Y37423D01*
X58845Y37420D01*
X58842Y37416D01*
X58839Y37411D01*
X58836Y37406D01*
X58832Y37402D01*
X58804Y37389D01*
X58795Y37403D01*
X58789Y37409D01*
X58780Y37413D01*
X58746Y37435D01*
X58748Y37477D01*
X58751Y37483D01*
X58753Y37490D01*
X58755Y37495D01*
X58759Y37499D01*
X58762Y37502D01*
X58765Y37506D01*
X58767Y37512D01*
X58769Y37519D01*
X58773Y37528D01*
X58779Y37536D01*
X58784Y37544D01*
X58786Y37550D01*
X58788Y37556D01*
X58795Y37560D01*
X58803Y37565D01*
X58808Y37574D01*
X58812Y37584D01*
X58817Y37594D01*
X58821Y37604D01*
X58824Y37612D01*
X58826Y37620D01*
X58830Y37626D01*
X58834Y37635D01*
X58839Y37647D01*
X58843Y37658D01*
X58847Y37665D01*
X58855Y37675D01*
X58857Y37685D01*
X58858Y37693D01*
X58861Y37701D01*
X58866Y37725D01*
X58862Y37744D01*
X58859Y37747D01*
X58851Y37739D01*
X58845Y37731D01*
X58841Y37723D01*
X58837Y37716D01*
X58832Y37711D01*
X58829Y37707D01*
X58826Y37702D01*
X58822Y37695D01*
X58817Y37688D01*
X58811Y37681D01*
X58809Y37674D01*
X58797Y37653D01*
X58777Y37639D01*
X58768Y37637D01*
X58761Y37634D01*
X58754Y37632D01*
X58745Y37636D01*
X58737Y37639D01*
X58730Y37641D01*
X58719Y37658D01*
X58721Y37697D01*
X58722Y37708D01*
X58722Y37717D01*
X58722Y37723D01*
X58726Y37728D01*
X58730Y37735D01*
X58735Y37744D01*
X58740Y37753D01*
X58746Y37761D01*
X58751Y37770D01*
X58753Y37783D01*
X58756Y37790D01*
X58761Y37797D01*
X58774Y37813D01*
X58783Y37835D01*
X58786Y37844D01*
X58789Y37851D01*
X58792Y37861D01*
X58793Y37888D01*
X58789Y37938D01*
X58774Y37954D01*
X58766Y37958D01*
X58761Y37963D01*
X58754Y37969D01*
X58746Y37963D01*
X58741Y37958D01*
X58737Y37956D01*
X58734Y37954D01*
X58728Y37950D01*
X58720Y37944D01*
X58712Y37940D01*
X58704Y37936D01*
X58698Y37933D01*
X58686Y37929D01*
X58671Y37938D01*
X58653Y37964D01*
X58656Y37988D01*
X58660Y37996D01*
X58661Y38003D01*
X58662Y38009D01*
X58667Y38014D01*
X58671Y38019D01*
X58675Y38023D01*
X58678Y38027D01*
X58683Y38029D01*
X58688Y38032D01*
X58691Y38036D01*
X58695Y38040D01*
X58700Y38043D01*
X58714Y38064D01*
X58718Y38125D01*
X58717Y38164D01*
X58712Y38170D01*
X58705Y38182D01*
X58699Y38202D01*
X58689Y38225D01*
X58677Y38241D01*
X58672Y38244D01*
X58667Y38248D01*
X58654Y38255D01*
X58638Y38258D01*
X58632Y38260D01*
X58626Y38265D01*
X58618Y38271D01*
X58610Y38270D01*
X58604Y38268D01*
X58599Y38269D01*
X58584Y38270D01*
X58570Y38263D01*
X58564Y38259D01*
X58555Y38256D01*
X58544Y38251D01*
X58539Y38242D01*
X58534Y38232D01*
X58525Y38225D01*
X58514Y38213D01*
X58507Y38197D01*
X58501Y38175D01*
X58488Y38166D01*
X58481Y38164D01*
X58478Y38159D01*
X58474Y38155D01*
X58468Y38151D01*
X58463Y38148D01*
X58458Y38145D01*
X58407Y38136D01*
X58360Y38145D01*
X58355Y38147D01*
X58346Y38151D01*
X58337Y38154D01*
X58331Y38158D01*
X58318Y38165D01*
X58285Y38166D01*
X58258Y38167D01*
X58247Y38170D01*
X58232Y38175D01*
X58218Y38177D01*
X58211Y38177D01*
X58205Y38179D01*
X58197Y38181D01*
X58184Y38181D01*
X58168Y38180D01*
X58160Y38188D01*
X58152Y38196D01*
X58119Y38196D01*
X58082Y38197D01*
X58069Y38202D01*
X58061Y38209D01*
X58052Y38205D01*
X58045Y38201D01*
X58041Y38200D01*
X58038Y38201D01*
X58034Y38202D01*
X58030Y38203D01*
X58025Y38206D01*
X58015Y38210D01*
X58004Y38207D01*
X57999Y38205D01*
X57994Y38209D01*
X57990Y38212D01*
X57987Y38213D01*
X57984Y38215D01*
X57979Y38219D01*
X57952Y38227D01*
X57918Y38230D01*
X57911Y38229D01*
X57902Y38228D01*
X57892Y38228D01*
X57886Y38232D01*
X57880Y38237D01*
X57870Y38239D01*
X57839Y38240D01*
X57814Y38242D01*
X57812Y38244D01*
X57808Y38248D01*
X57802Y38252D01*
X57795Y38255D01*
X57789Y38257D01*
X57784Y38261D01*
X57780Y38266D01*
X57775Y38273D01*
X57769Y38281D01*
X57767Y38289D01*
X57764Y38298D01*
X57761Y38306D01*
X57751Y38337D01*
X57749Y38364D01*
X57750Y38371D01*
X57748Y38376D01*
X57744Y38382D01*
X57740Y38388D01*
X57736Y38395D01*
X57732Y38400D01*
X57727Y38405D01*
X57722Y38412D01*
X57716Y38419D01*
X57711Y38424D01*
X57707Y38427D01*
X57705Y38430D01*
X57692Y38436D01*
X57679Y38430D01*
X57675Y38426D01*
X57667Y38421D01*
X57658Y38416D01*
X57649Y38408D01*
X57619Y38384D01*
X57587Y38373D01*
X57579Y38370D01*
X57573Y38360D01*
X57569Y38350D01*
X57564Y38340D01*
X57558Y38329D01*
X57555Y38319D01*
X57552Y38310D01*
X57548Y38303D01*
X57545Y38297D01*
X57543Y38287D01*
X57542Y38273D01*
X57541Y38253D01*
X57539Y38212D01*
X57541Y38176D01*
X57542Y38163D01*
X57541Y38155D01*
X57540Y38141D01*
X57539Y38120D01*
X57538Y38084D01*
X57533Y38058D01*
X57531Y38051D01*
X57530Y38046D01*
X57518Y38023D01*
X57496Y38013D01*
X57488Y38015D01*
X57480Y38015D01*
X57471Y38016D01*
X57466Y38021D01*
X57461Y38026D01*
X57456Y38032D01*
X57452Y38037D01*
X57451Y38040D01*
X57449Y38043D01*
X57445Y38048D01*
X57440Y38055D01*
X57438Y38066D01*
X57436Y38077D01*
X57434Y38089D01*
X57432Y38099D01*
X57431Y38107D01*
X57430Y38114D01*
X57427Y38121D01*
X57424Y38130D01*
X57422Y38142D01*
X57405Y38180D01*
X57373Y38175D01*
X57366Y38171D01*
X57358Y38167D01*
X57349Y38164D01*
X57345Y38156D01*
X57340Y38149D01*
X57336Y38143D01*
X57332Y38136D01*
X57330Y38128D01*
X57325Y38111D01*
X57319Y38098D01*
X57315Y38075D01*
X57316Y38045D01*
X57318Y38022D01*
X57316Y38004D01*
X57314Y37983D01*
X57319Y37959D01*
X57324Y37941D01*
X57322Y37925D01*
X57322Y37918D01*
X57323Y37908D01*
X57323Y37894D01*
X57321Y37884D01*
X57319Y37874D01*
X57322Y37867D01*
X57324Y37859D01*
X57326Y37850D01*
X57328Y37842D01*
X57331Y37834D01*
X57333Y37827D01*
X57334Y37819D01*
X57334Y37796D01*
X57334Y37785D01*
X57333Y37763D01*
X57327Y37747D01*
X57323Y37739D01*
X57321Y37731D01*
X57319Y37724D01*
X57316Y37717D01*
X57312Y37710D01*
X57310Y37702D01*
X57308Y37695D01*
X57305Y37689D01*
X57302Y37684D01*
X57300Y37679D01*
X57297Y37674D01*
X57293Y37670D01*
X57290Y37667D01*
X57287Y37662D01*
X57283Y37657D01*
X57278Y37653D01*
X57272Y37648D01*
X57272Y37637D01*
X57270Y37622D01*
X57263Y37611D01*
X57259Y37605D01*
X57255Y37599D01*
X57252Y37594D01*
X57250Y37591D01*
X57248Y37588D01*
X57247Y37581D01*
X57246Y37572D01*
X57240Y37566D01*
X57227Y37551D01*
X57219Y37532D01*
X57215Y37524D01*
X57211Y37518D01*
X57206Y37512D01*
X57206Y37505D01*
X57206Y37499D01*
X57202Y37492D01*
X57199Y37487D01*
X57197Y37483D01*
X57195Y37479D01*
X57191Y37473D01*
X57185Y37463D01*
X57180Y37451D01*
X57169Y37419D01*
X57157Y37395D01*
X57156Y37392D01*
X57155Y37386D01*
X57155Y37379D01*
X57153Y37372D01*
X57150Y37365D01*
X57148Y37356D01*
X57146Y37347D01*
X57142Y37340D01*
X57139Y37333D01*
X57138Y37326D01*
X57136Y37309D01*
X57129Y37292D01*
X57126Y37286D01*
X57126Y37279D01*
X57126Y37271D01*
X57118Y37263D01*
X57110Y37255D01*
X57107Y37248D01*
X57095Y37232D01*
X57074Y37229D01*
X57067Y37231D01*
X57059Y37225D01*
X57053Y37220D01*
X57047Y37216D01*
X57042Y37212D01*
X57041Y37204D01*
X57039Y37198D01*
X57036Y37192D01*
X57030Y37182D01*
X57026Y37159D01*
X57020Y37128D01*
X57008Y37109D01*
X57001Y37090D01*
X57005Y37070D01*
X57009Y37064D01*
X57012Y37059D01*
X57015Y37054D01*
X57019Y37050D01*
X57026Y37025D01*
X57021Y36994D01*
X57017Y36983D01*
X57014Y36964D01*
X57013Y36945D01*
X57011Y36931D01*
X57010Y36922D01*
X57010Y36916D01*
X57010Y36910D01*
X57008Y36903D01*
X57005Y36893D01*
X57004Y36881D01*
X57002Y36870D01*
X57000Y36859D01*
X56998Y36847D01*
X56997Y36834D01*
X56997Y36822D01*
X56995Y36813D01*
X56993Y36805D01*
X56994Y36799D01*
X56993Y36763D01*
X56976Y36736D01*
X56970Y36726D01*
X56968Y36689D01*
X56963Y36648D01*
X56950Y36628D01*
X56943Y36618D01*
X56939Y36600D01*
X56935Y36583D01*
X56928Y36569D01*
X56925Y36563D01*
X56924Y36556D01*
X56923Y36549D01*
X56919Y36543D01*
X56911Y36534D01*
X56909Y36525D01*
X56907Y36519D01*
X56902Y36513D01*
X56896Y36505D01*
X56894Y36496D01*
X56892Y36488D01*
X56887Y36482D01*
X56880Y36471D01*
X56875Y36445D01*
X56878Y36423D01*
X56890Y36413D01*
X56897Y36414D01*
X56909Y36415D01*
X56932Y36421D01*
X56948Y36434D01*
X56956Y36442D01*
X56965Y36445D01*
X56970Y36447D01*
X56978Y36451D01*
X56988Y36456D01*
X56998Y36460D01*
X57008Y36464D01*
X57016Y36469D01*
X57022Y36474D01*
X57026Y36476D01*
X57029Y36478D01*
X57033Y36482D01*
X57038Y36487D01*
X57042Y36490D01*
X57048Y36493D01*
X57054Y36498D01*
X57076Y36506D01*
X57101Y36505D01*
X57111Y36503D01*
X57118Y36504D01*
X57127Y36505D01*
X57139Y36505D01*
X57201Y36504D01*
X57256Y36507D01*
X57265Y36507D01*
X57278Y36507D01*
X57291Y36506D01*
X57300Y36508D01*
X57305Y36510D01*
X57308Y36510D01*
X57378Y36505D01*
X57455Y36508D01*
X57463Y36509D01*
X57473Y36508D01*
X57505Y36505D01*
X57534Y36503D01*
X57538Y36505D01*
X57543Y36509D01*
X57549Y36513D01*
X57554Y36511D01*
X57564Y36509D01*
X57585Y36507D01*
X57632Y36504D01*
X57660Y36499D01*
X57705Y36491D01*
X57738Y36495D01*
X57745Y36499D01*
X57753Y36498D01*
X57760Y36497D01*
X57766Y36500D01*
X57782Y36504D01*
X57797Y36500D01*
X57803Y36497D01*
X57812Y36501D01*
X57819Y36505D01*
X57827Y36505D01*
X57841Y36506D01*
X57858Y36512D01*
X57865Y36515D01*
X57872Y36513D01*
X57879Y36511D01*
X57886Y36515D01*
X57900Y36519D01*
X57913Y36513D01*
X57938Y36506D01*
X57980Y36506D01*
X57993Y36507D01*
X58006Y36508D01*
X58017Y36510D01*
X58026Y36512D01*
X58047Y36515D01*
X58067Y36513D01*
X58076Y36511D01*
X58084Y36515D01*
X58093Y36519D01*
X58119Y36521D01*
X58152Y36522D01*
X58164Y36527D01*
X58174Y36531D01*
X58187Y36528D01*
X58196Y36525D01*
X58208Y36525D01*
X58220Y36524D01*
X58230Y36521D01*
X58242Y36519D01*
X58272Y36519D01*
X58310Y36520D01*
X58325Y36515D01*
X58332Y36513D01*
X58337Y36515D01*
X58351Y36520D01*
X58366Y36514D01*
X58370Y36510D01*
X58376Y36508D01*
X58392Y36504D01*
X58401Y36495D01*
X58407Y36489D01*
X58411Y36486D01*
X58415Y36485D01*
X58421Y36481D01*
X58428Y36477D01*
X58434Y36475D01*
X58438Y36473D01*
X58441Y36470D01*
X58450Y36463D01*
X58461Y36460D01*
X58467Y36459D01*
X58472Y36454D01*
X58478Y36449D01*
X58486Y36444D01*
X58492Y36440D01*
X58496Y36436D01*
X58499Y36433D01*
X58504Y36433D01*
X58510Y36431D01*
X58518Y36424D01*
X58526Y36416D01*
X58536Y36414D01*
X58545Y36412D01*
X58555Y36408D01*
X58571Y36403D01*
X58584Y36409D01*
X58590Y36412D01*
X58598Y36415D01*
X58606Y36417D01*
X58614Y36424D01*
X58621Y36431D01*
X58628Y36437D01*
X58639Y36456D01*
X58633Y36478D01*
X58629Y36486D01*
X58627Y36494D01*
X58624Y36506D01*
X58617Y36516D01*
X58602Y36533D01*
X58590Y36537D01*
X58576Y36540D01*
X58566Y36547D01*
X58559Y36551D01*
X58552Y36552D01*
X58539Y36557D01*
X58534Y36569D01*
X58533Y36576D01*
X58531Y36585D01*
X58535Y36613D01*
X58552Y36627D01*
X58566Y36638D01*
X58571Y36661D01*
X58571Y36668D01*
X58574Y36677D01*
X58576Y36686D01*
X58577Y36692D01*
X58579Y36698D01*
X58583Y36707D01*
X58586Y36715D01*
X58588Y36721D01*
X58589Y36727D01*
X58593Y36734D01*
X58597Y36744D01*
X58599Y36757D01*
X58602Y36770D01*
X58606Y36779D01*
X58610Y36787D01*
X58610Y36797D01*
X58624Y36879D01*
X58677Y36899D01*
X58689Y36898D01*
X58699Y36887D01*
X58709Y36876D01*
X58714Y36882D01*
X58719Y36889D01*
X58726Y36898D01*
X58732Y36909D01*
X58732Y36932D01*
X58734Y36964D01*
X58739Y36989D01*
X58741Y37007D01*
X58735Y37020D01*
X58732Y37025D01*
X58730Y37028D01*
X58728Y37030D01*
X58724Y37035D01*
X58718Y37041D01*
X58714Y37046D01*
X58710Y37050D01*
X58704Y37052D01*
X58686Y37066D01*
X58671Y37092D01*
X58666Y37112D01*
X58670Y37142D01*
X58672Y37156D01*
X58674Y37174D01*
X58677Y37206D01*
X58685Y37229D01*
X58689Y37240D01*
X58692Y37249D01*
X58694Y37256D01*
X58698Y37263D01*
X58702Y37270D01*
X58702Y37280D01*
X58702Y37290D01*
X58706Y37297D01*
X58710Y37303D01*
X58710Y37310D01*
X58710Y37316D01*
X58711Y37320D01*
X58717Y37334D01*
X58723Y37354D01*
X58726Y37360D01*
X58731Y37364D01*
X58736Y37368D01*
X58738Y37372D01*
X58755Y37380D01*
X58774Y37371D01*
X58778Y37366D01*
X58784Y37361D01*
X58797Y37345D01*
X58800Y37326D01*
X58797Y37315D01*
X58796Y37284D01*
X58795Y37272D01*
X58792Y37263D01*
X58789Y37256D01*
X58788Y37249D01*
X58787Y37243D01*
X58784Y37237D01*
X58781Y37228D01*
X58776Y37214D01*
X58767Y37182D01*
X58757Y37162D01*
X58749Y37140D01*
X58762Y37120D01*
X58788Y37103D01*
X58804Y37106D01*
X58810Y37111D01*
X58816Y37115D01*
X58821Y37118D01*
X58824Y37120D01*
X58826Y37121D01*
X58830Y37124D01*
X58835Y37128D01*
X58839Y37133D01*
X58844Y37139D01*
X58852Y37141D01*
X58861Y37144D01*
X58868Y37150D01*
X58873Y37156D01*
X58905Y37156D01*
X58933Y37155D01*
X58943Y37151D01*
X58950Y37146D01*
X58960Y37143D01*
X58975Y37138D01*
X58982Y37132D01*
X58995Y37124D01*
X59025Y37126D01*
X59055Y37128D01*
X59080Y37126D01*
X59092Y37124D01*
X59103Y37123D01*
X59112Y37123D01*
X59116Y37121D01*
X59123Y37113D01*
X59131Y37107D01*
X59148Y37097D01*
X59159Y37089D01*
X59172Y37073D01*
X59182Y37052D01*
X59184Y37044D01*
X59188Y37037D01*
X59197Y37020D01*
X59199Y36987D01*
X59201Y36954D01*
X59206Y36948D01*
X59211Y36940D01*
X59214Y36931D01*
X59217Y36922D01*
X59221Y36915D01*
X59229Y36861D01*
X59219Y36814D01*
X59208Y36799D01*
X59201Y36780D01*
X59199Y36772D01*
X59196Y36765D01*
X59193Y36760D01*
X59193Y36752D01*
X59193Y36744D01*
X59189Y36737D01*
X59185Y36732D01*
X59181Y36727D01*
X59177Y36723D01*
X59169Y36720D01*
X59160Y36716D01*
X59157Y36711D01*
X59153Y36706D01*
X59149Y36701D01*
X59145Y36697D01*
X59144Y36695D01*
X59142Y36690D01*
X59138Y36683D01*
X59132Y36672D01*
X59129Y36663D01*
X59121Y36649D01*
X59109Y36643D01*
X59090Y36632D01*
X59082Y36615D01*
X59082Y36608D01*
X59076Y36602D01*
X59070Y36596D01*
X59064Y36590D01*
X59058Y36585D01*
X59055Y36583D01*
X59052Y36580D01*
X59048Y36575D01*
X59044Y36571D01*
X59038Y36569D01*
X59026Y36566D01*
X59021Y36563D01*
X59016Y36559D01*
X59009Y36555D01*
X59002Y36551D01*
X58997Y36547D01*
X58993Y36545D01*
X58987Y36543D01*
X58980Y36541D01*
X58971Y36537D01*
X58960Y36534D01*
X58949Y36534D01*
X58938Y36534D01*
X58931Y36530D01*
X58909Y36523D01*
X58892Y36531D01*
X58885Y36535D01*
X58867Y36538D01*
X58856Y36540D01*
X58849Y36544D01*
X58840Y36549D01*
X58808Y36546D01*
X58794Y36551D01*
X58786Y36561D01*
X58783Y36564D01*
X58778Y36567D01*
X58760Y36585D01*
X58746Y36610D01*
X58744Y36616D01*
X58741Y36620D01*
X58738Y36625D01*
X58736Y36630D01*
X58732Y36642D01*
X58721Y36663D01*
X58718Y36670D01*
X58716Y36677D01*
X58714Y36690D01*
X58709Y36698D01*
X58704Y36696D01*
X58702Y36689D01*
X58701Y36684D01*
X58695Y36677D01*
X58689Y36668D01*
X58691Y36645D01*
X58691Y36638D01*
X58688Y36632D01*
X58684Y36623D01*
X58689Y36618D01*
X58704Y36595D01*
X58717Y36565D01*
X58720Y36557D01*
X58725Y36551D01*
X58731Y36544D01*
X58735Y36538D01*
X58738Y36533D01*
X58742Y36527D01*
X58748Y36503D01*
X58749Y36444D01*
X58743Y36391D01*
X58727Y36362D01*
X58721Y36357D01*
X58716Y36352D01*
X58711Y36345D01*
X58704Y36338D01*
X58695Y36331D01*
X58687Y36323D01*
X58679Y36317D01*
X58671Y36313D01*
X58662Y36310D01*
X58658Y36305D01*
X58646Y36296D01*
X58628Y36289D01*
X58621Y36287D01*
X58613Y36284D01*
X58605Y36280D01*
X58597Y36281D01*
X58581Y36281D01*
X58572Y36276D01*
X58558Y36270D01*
X58540Y36273D01*
X58535Y36277D01*
X58529Y36280D01*
X58522Y36283D01*
X58517Y36287D01*
X58512Y36289D01*
X58506Y36290D01*
X58494Y36293D01*
X58481Y36303D01*
X58475Y36308D01*
X58469Y36312D01*
X58464Y36316D01*
X58458Y36321D01*
X58453Y36326D01*
X58446Y36327D01*
X58435Y36329D01*
X58429Y36335D01*
X58424Y36340D01*
X58413Y36340D01*
X58405Y36340D01*
X58399Y36346D01*
X58391Y36352D01*
X58381Y36353D01*
X58365Y36355D01*
X58353Y36363D01*
X58347Y36368D01*
X58339Y36368D01*
X58331Y36366D01*
X58331Y36375D01*
X58332Y36383D01*
X58323Y36384D01*
X58305Y36389D01*
X58290Y36396D01*
X58284Y36398D01*
X58272Y36395D01*
X58261Y36392D01*
X58253Y36390D01*
X58249Y36388D01*
X58246Y36386D01*
X58241Y36383D01*
X58236Y36387D01*
X58229Y36394D01*
X58219Y36388D01*
X58212Y36381D01*
X58158Y36381D01*
X58118Y36381D01*
X58097Y36382D01*
X58091Y36383D01*
X58083Y36381D01*
X58065Y36380D01*
X58040Y36382D01*
X58031Y36383D01*
X58023Y36382D01*
X58015Y36381D01*
X58007Y36382D01*
X57988Y36380D01*
X57975Y36371D01*
X57969Y36367D01*
X57961Y36370D01*
X57955Y36373D01*
X57952Y36371D01*
X57943Y36367D01*
X57923Y36367D01*
X57910Y36368D01*
X57900Y36367D01*
X57880Y36367D01*
X57879Y36376D01*
X57880Y36381D01*
X57877Y36383D01*
X57873Y36382D01*
X57867Y36380D01*
X57859Y36377D01*
X57856Y36374D01*
X57848Y36369D01*
X57843Y36380D01*
X57834Y36383D01*
X57825Y36376D01*
X57824Y36372D01*
X57823Y36369D01*
X57813Y36366D01*
X57790Y36367D01*
X57778Y36368D01*
X57770Y36367D01*
X57761Y36366D01*
X57745Y36365D01*
X57724Y36362D01*
X57716Y36353D01*
X57707Y36351D01*
X57696Y36355D01*
X57692Y36359D01*
X57687Y36360D01*
X57682Y36361D01*
X57677Y36363D01*
X57668Y36366D01*
X57660Y36363D01*
X57653Y36360D01*
X57647Y36361D01*
X57638Y36363D01*
X57624Y36363D01*
X57611Y36364D01*
X57603Y36366D01*
X57596Y36368D01*
X57581Y36367D01*
X57565Y36366D01*
X57555Y36370D01*
X57541Y36375D01*
X57528Y36370D01*
X57518Y36365D01*
X57487Y36365D01*
X57461Y36366D01*
X57450Y36368D01*
X57442Y36371D01*
X57436Y36369D01*
X57423Y36367D01*
X57387Y36367D01*
X57368Y36367D01*
X57355Y36366D01*
X57318Y36367D01*
X57306Y36376D01*
X57308Y36381D01*
X57301Y36382D01*
X57274Y36381D01*
X57247Y36388D01*
X57243Y36389D01*
X57240Y36386D01*
X57233Y36382D01*
X57228Y36383D01*
X57230Y36387D01*
X57234Y36389D01*
X57237Y36392D01*
X57234Y36397D01*
X57179Y36398D01*
X57134Y36391D01*
X57129Y36382D01*
X57122Y36389D01*
X57115Y36397D01*
X57106Y36392D01*
X57099Y36386D01*
X57087Y36386D01*
X57080Y36385D01*
X57076Y36380D01*
X57072Y36375D01*
X57067Y36371D01*
X57061Y36368D01*
X57058Y36365D01*
X57049Y36358D01*
X57032Y36356D01*
X57021Y36356D01*
X57016Y36351D01*
X57012Y36347D01*
X57006Y36344D01*
X57001Y36341D01*
X56997Y36336D01*
X56990Y36329D01*
X56981Y36327D01*
X56975Y36326D01*
X56969Y36322D01*
X56962Y36317D01*
X56951Y36313D01*
X56938Y36308D01*
X56927Y36303D01*
X56917Y36298D01*
X56910Y36299D01*
X56903Y36300D01*
X56897Y36301D01*
X56873Y36300D01*
X56861Y36305D01*
X56854Y36310D01*
X56842Y36312D01*
X56825Y36315D01*
X56813Y36328D01*
X56807Y36335D01*
X56801Y36337D01*
X56796Y36339D01*
X56791Y36345D01*
X56786Y36352D01*
X56780Y36359D01*
X56775Y36365D01*
X56773Y36368D01*
X56770Y36391D01*
X56765Y36408D01*
X56761Y36413D01*
X56765Y36419D01*
X56769Y36427D01*
X56766Y36446D01*
X56765Y36455D01*
X56766Y36464D01*
X56768Y36473D01*
X56767Y36480D01*
X56770Y36498D01*
X56780Y36515D01*
X56783Y36519D01*
X56785Y36526D01*
X56788Y36536D01*
X56795Y36550D01*
X56803Y36565D01*
X56806Y36579D01*
X56809Y36593D01*
X56815Y36600D01*
X56821Y36607D01*
X56822Y36616D01*
X56823Y36624D01*
X56826Y36631D01*
X56830Y36639D01*
X56833Y36647D01*
X56835Y36656D01*
X56838Y36664D01*
X56841Y36671D01*
X56843Y36678D01*
X56845Y36687D01*
X56850Y36700D01*
X56854Y36713D01*
X56853Y36721D01*
X56852Y36729D01*
X56854Y36737D01*
X56856Y36744D01*
X56857Y36751D01*
X56858Y36759D01*
X56860Y36766D01*
X56863Y36776D01*
X56865Y36789D01*
X56867Y36803D01*
X56872Y36811D01*
X56878Y36835D01*
X56869Y36852D01*
X56862Y36849D01*
X56854Y36840D01*
X56839Y36824D01*
X56818Y36816D01*
X56814Y36815D01*
X56810Y36811D01*
X56804Y36807D01*
X56792Y36806D01*
X56781Y36805D01*
X56776Y36802D01*
X56764Y36795D01*
X56751Y36801D01*
X56745Y36805D01*
X56734Y36806D01*
X56723Y36806D01*
X56716Y36809D01*
X56706Y36814D01*
X56681Y36820D01*
X56665Y36830D01*
X56651Y36848D01*
X56647Y36854D01*
X56645Y36856D01*
X56637Y36862D01*
X56631Y36873D01*
X56628Y36879D01*
X56622Y36881D01*
X56616Y36883D01*
X56613Y36887D01*
X56604Y36894D01*
X56585Y36899D01*
X56579Y36901D01*
X56572Y36906D01*
X56567Y36910D01*
X56564Y36912D01*
X56554Y36921D01*
X56543Y36935D01*
X56538Y36943D01*
X56529Y36953D01*
X56516Y36967D01*
X56512Y36979D01*
X56507Y36993D01*
X56497Y37011D01*
X56490Y37027D01*
X56484Y37052D01*
X56481Y37065D01*
X56477Y37074D01*
X56471Y37094D01*
X56472Y37118D01*
X56473Y37133D01*
X56473Y37152D01*
X56473Y37160D01*
X56475Y37170D01*
X56477Y37180D01*
X56476Y37189D01*
X56475Y37196D01*
X56477Y37204D01*
X56479Y37212D01*
X56479Y37219D01*
X56480Y37227D01*
X56483Y37239D01*
X56486Y37252D01*
X56488Y37263D01*
X56491Y37273D01*
X56495Y37282D01*
X56500Y37289D01*
X56503Y37296D01*
X56505Y37303D01*
X56509Y37309D01*
X56522Y37330D01*
X56529Y37351D01*
X56532Y37362D01*
X56535Y37371D01*
X56536Y37379D01*
X56535Y37385D01*
X56535Y37392D01*
X56540Y37398D01*
X56544Y37404D01*
X56549Y37412D01*
X56553Y37420D01*
X56557Y37425D01*
X56560Y37429D01*
X56562Y37433D01*
X56566Y37439D01*
X56571Y37442D01*
X56578Y37446D01*
X56584Y37451D01*
X56591Y37455D01*
X56599Y37457D01*
X56606Y37459D01*
X56611Y37462D01*
X56615Y37464D01*
X56621Y37465D01*
X56627Y37466D01*
X56635Y37469D01*
X56644Y37471D01*
X56659Y37471D01*
X56676Y37471D01*
X56683Y37464D01*
X56690Y37458D01*
X56698Y37457D01*
X56722Y37448D01*
X56741Y37423D01*
X56745Y37416D01*
X56749Y37412D01*
X56764Y37413D01*
X56779Y37419D01*
X56798Y37432D01*
X56814Y37441D01*
X56819Y37444D01*
X56823Y37446D01*
X56838Y37453D01*
X56866Y37456D01*
X56887Y37458D01*
X56902Y37451D01*
X56914Y37445D01*
X56923Y37442D01*
X56944Y37429D01*
X56955Y37406D01*
X56957Y37401D01*
X56961Y37394D01*
X56965Y37385D01*
X56969Y37374D01*
X56972Y37363D01*
X56977Y37355D01*
X56982Y37348D01*
X56986Y37340D01*
X56991Y37332D01*
X56998Y37324D01*
X57006Y37316D01*
X57015Y37319D01*
X57026Y37326D01*
X57028Y37344D01*
X57027Y37356D01*
X57029Y37368D01*
X57030Y37379D01*
X57032Y37390D01*
X57034Y37400D01*
X57038Y37408D01*
X57042Y37415D01*
X57045Y37424D01*
X57047Y37431D01*
X57049Y37435D01*
X57051Y37438D01*
X57051Y37443D01*
X57052Y37449D01*
X57056Y37455D01*
X57063Y37465D01*
X57066Y37475D01*
X57068Y37482D01*
X57070Y37486D01*
X57073Y37491D01*
X57076Y37499D01*
X57079Y37508D01*
X57082Y37513D01*
X57088Y37522D01*
X57092Y37534D01*
X57094Y37542D01*
X57099Y37550D01*
X57103Y37559D01*
X57106Y37567D01*
X57109Y37577D01*
X57115Y37590D01*
X57121Y37602D01*
X57125Y37610D01*
X57127Y37615D01*
X57131Y37621D01*
X57142Y37639D01*
X57151Y37663D01*
X57155Y37673D01*
X57160Y37681D01*
X57164Y37688D01*
X57166Y37692D01*
X57168Y37695D01*
X57174Y37699D01*
X57190Y37712D01*
X57198Y37731D01*
X57200Y37738D01*
X57203Y37744D01*
X57210Y37781D01*
X57198Y37811D01*
X57195Y37814D01*
X57192Y37820D01*
X57186Y37828D01*
X57178Y37823D01*
X57171Y37817D01*
X57164Y37816D01*
X57149Y37813D01*
X57135Y37806D01*
X57127Y37802D01*
X57111Y37800D01*
X57094Y37800D01*
X57085Y37810D01*
X57081Y37816D01*
X57074Y37816D01*
X57061Y37820D01*
X57041Y37839D01*
X57034Y37845D01*
X57013Y37845D01*
X56994Y37845D01*
X56980Y37843D01*
X56962Y37843D01*
X56952Y37852D01*
X56946Y37858D01*
X56938Y37859D01*
X56932Y37859D01*
X56927Y37860D01*
X56893Y37893D01*
X56865Y37928D01*
X56862Y37944D01*
X56859Y37970D01*
X56858Y37999D01*
X56863Y38019D01*
X56866Y38025D01*
X56867Y38033D01*
X56868Y38041D01*
X56871Y38047D01*
X56874Y38062D01*
X56863Y38074D01*
X56830Y38100D01*
X56812Y38137D01*
X56810Y38149D01*
X56808Y38158D01*
X56804Y38182D01*
X56807Y38198D01*
X56811Y38207D01*
X56809Y38214D01*
X56807Y38220D01*
X56810Y38227D01*
X56817Y38240D01*
X56821Y38258D01*
X56824Y38266D01*
X56829Y38273D01*
X56834Y38280D01*
X56839Y38286D01*
X56843Y38291D01*
X56846Y38295D01*
X56849Y38300D01*
X56852Y38305D01*
X56862Y38319D01*
X56874Y38329D01*
X56891Y38345D01*
X56910Y38366D01*
X56917Y38373D01*
X56929Y38377D01*
X56935Y38380D01*
X56939Y38384D01*
X56944Y38389D01*
X56952Y38390D01*
X56968Y38393D01*
X56981Y38400D01*
X56987Y38405D01*
X56993Y38408D01*
X56999Y38410D01*
X57003Y38412D01*
X57007Y38414D01*
X57014Y38415D01*
X57040Y38421D01*
X57055Y38429D01*
X57060Y38433D01*
X57066Y38437D01*
X57073Y38441D01*
X57077Y38444D01*
X57080Y38447D01*
X57086Y38451D01*
X57092Y38455D01*
X57098Y38459D01*
X57105Y38464D01*
X57112Y38468D01*
X57118Y38472D01*
X57122Y38475D01*
X57127Y38478D01*
X57134Y38479D01*
X57148Y38482D01*
X57158Y38490D01*
X57166Y38494D01*
X57179Y38496D01*
X57191Y38498D01*
X57198Y38501D01*
X57204Y38503D01*
X57210Y38505D01*
X57217Y38507D01*
X57225Y38509D01*
X57233Y38511D01*
X57240Y38509D01*
X57246Y38506D01*
X57253Y38509D01*
X57261Y38511D01*
X57275Y38510D01*
X57288Y38509D01*
X57298Y38510D01*
X57304Y38511D01*
X57307Y38512D01*
X57309Y38510D01*
X57315Y38505D01*
X57322Y38499D01*
X57329Y38498D01*
X57341Y38495D01*
X57350Y38489D01*
X57353Y38486D01*
X57359Y38487D01*
X57365Y38488D01*
X57371Y38486D01*
X57379Y38483D01*
X57386Y38480D01*
X57393Y38477D01*
X57395Y38471D01*
X57397Y38463D01*
X57403Y38464D01*
X57411Y38466D01*
X57417Y38460D01*
X57420Y38456D01*
X57423Y38453D01*
X57427Y38451D01*
X57432Y38447D01*
X57437Y38442D01*
X57442Y38439D01*
X57446Y38436D01*
X57449Y38432D01*
X57456Y38424D01*
X57464Y38422D01*
X57480Y38428D01*
X57531Y38476D01*
X57539Y38485D01*
X57543Y38491D01*
X57546Y38496D01*
X57553Y38499D01*
X57559Y38501D01*
X57564Y38505D01*
X57569Y38510D01*
X57577Y38514D01*
X57583Y38518D01*
X57588Y38521D01*
X57591Y38524D01*
X57596Y38526D01*
X57601Y38530D01*
X57605Y38534D01*
X57609Y38539D01*
X57617Y38538D01*
X57622Y38538D01*
X57630Y38541D01*
X57638Y38544D01*
X57645Y38543D01*
X57655Y38542D01*
X57665Y38548D01*
X57680Y38556D01*
X57696Y38552D01*
X57707Y38548D01*
X57716Y38548D01*
X57731Y38548D01*
X57755Y38548D01*
X57773Y38548D01*
X57783Y38538D01*
X57792Y38529D01*
X57798Y38522D01*
X57813Y38514D01*
X57827Y38536D01*
X57832Y38546D01*
X57842Y38557D01*
X57852Y38568D01*
X57858Y38578D01*
X57862Y38586D01*
X57867Y38590D01*
X57872Y38593D01*
X57876Y38597D01*
X57881Y38600D01*
X57890Y38602D01*
X57899Y38604D01*
X57904Y38606D01*
X57930Y38601D01*
D02*
G37*
G36*
X58179Y38003D02*
X58184Y37997D01*
X58189Y37993D01*
X58199Y37943D01*
X58158Y37896D01*
X58148Y37892D01*
X58145Y37882D01*
X58153Y37860D01*
X58173Y37855D01*
X58180Y37857D01*
X58184Y37855D01*
X58196Y37849D01*
X58241Y37846D01*
X58288Y37845D01*
X58294Y37840D01*
X58302Y37835D01*
X58318Y37832D01*
X58330Y37829D01*
X58332Y37821D01*
X58332Y37815D01*
X58340Y37814D01*
X58348Y37813D01*
X58353Y37807D01*
X58358Y37800D01*
X58364Y37792D01*
X58370Y37784D01*
X58371Y37777D01*
X58372Y37769D01*
X58376Y37763D01*
X58384Y37739D01*
X58377Y37709D01*
X58373Y37700D01*
X58371Y37689D01*
X58369Y37678D01*
X58363Y37670D01*
X58358Y37662D01*
X58357Y37652D01*
X58355Y37635D01*
X58348Y37623D01*
X58343Y37617D01*
X58341Y37609D01*
X58339Y37602D01*
X58334Y37595D01*
X58329Y37589D01*
X58327Y37582D01*
X58326Y37576D01*
X58324Y37570D01*
X58320Y37563D01*
X58314Y37554D01*
X58301Y37535D01*
X58280Y37517D01*
X58274Y37511D01*
X58268Y37503D01*
X58261Y37496D01*
X58253Y37491D01*
X58246Y37486D01*
X58241Y37482D01*
X58229Y37474D01*
X58210Y37472D01*
X58197Y37471D01*
X58190Y37469D01*
X58177Y37461D01*
X58163Y37458D01*
X58150Y37456D01*
X58142Y37450D01*
X58138Y37445D01*
X58092Y37446D01*
X58045Y37446D01*
X58040Y37452D01*
X58033Y37456D01*
X58021Y37458D01*
X58011Y37458D01*
X58004Y37460D01*
X57997Y37462D01*
X57985Y37463D01*
X57952Y37471D01*
X57920Y37495D01*
X57912Y37501D01*
X57903Y37504D01*
X57897Y37507D01*
X57893Y37509D01*
X57889Y37514D01*
X57882Y37523D01*
X57875Y37532D01*
X57872Y37539D01*
X57869Y37545D01*
X57863Y37552D01*
X57850Y37568D01*
X57845Y37582D01*
X57841Y37592D01*
X57837Y37601D01*
X57831Y37616D01*
X57827Y37637D01*
X57825Y37650D01*
X57822Y37658D01*
X57818Y37673D01*
X57820Y37693D01*
X57823Y37708D01*
X57819Y37716D01*
X57813Y37745D01*
X57818Y37775D01*
X57821Y37784D01*
X57822Y37791D01*
X57824Y37798D01*
X57827Y37807D01*
X57831Y37815D01*
X57833Y37819D01*
X57840Y37829D01*
X57857Y37842D01*
X57867Y37848D01*
X57874Y37855D01*
X57880Y37859D01*
X57884Y37861D01*
X57894Y37863D01*
X57904Y37870D01*
X57931Y37879D01*
X57961Y37880D01*
X58010Y37877D01*
X58058Y37879D01*
X58061Y37880D01*
X58066Y37875D01*
X58074Y37870D01*
X58078Y37873D01*
X58079Y37891D01*
X58069Y37893D01*
X58062Y37894D01*
X58057Y37899D01*
X58053Y37905D01*
X58047Y37909D01*
X58042Y37913D01*
X58038Y37918D01*
X58034Y37924D01*
X58030Y37930D01*
X58026Y37937D01*
X58026Y37948D01*
X58032Y37984D01*
X58046Y37998D01*
X58053Y38003D01*
X58058Y38007D01*
X58060Y38012D01*
X58075Y38011D01*
X58085Y38010D01*
X58090Y38010D01*
X58096Y38011D01*
X58109Y38012D01*
X58158Y38012D01*
X58179Y38003D01*
D02*
G37*
G36*
X57903Y38096D02*
X57910Y38092D01*
X57918Y38087D01*
X57925Y38083D01*
X57928Y38076D01*
X57932Y38068D01*
X57937Y38061D01*
X57941Y38013D01*
X57902Y37968D01*
X57895Y37965D01*
X57890Y37961D01*
X57880Y37957D01*
X57872Y37962D01*
X57865Y37967D01*
X57857Y37968D01*
X57841Y37974D01*
X57830Y37989D01*
X57825Y37999D01*
X57821Y38007D01*
X57815Y38035D01*
X57824Y38060D01*
X57829Y38067D01*
X57833Y38072D01*
X57842Y38082D01*
X57856Y38088D01*
X57865Y38091D01*
X57872Y38096D01*
X57886Y38102D01*
X57903Y38096D01*
D02*
G37*
G36*
X58370Y38038D02*
X58373Y38038D01*
X58376Y38036D01*
X58379Y38032D01*
X58383Y38026D01*
X58388Y38019D01*
X58394Y38012D01*
X58399Y38005D01*
X58403Y37997D01*
X58409Y37990D01*
X58415Y37980D01*
X58413Y37962D01*
X58412Y37949D01*
X58411Y37939D01*
X58410Y37933D01*
X58404Y37929D01*
X58398Y37926D01*
X58393Y37922D01*
X58352Y37908D01*
X58313Y37917D01*
X58309Y37923D01*
X58304Y37929D01*
X58295Y37963D01*
X58306Y37994D01*
X58309Y37998D01*
X58313Y38004D01*
X58317Y38010D01*
X58322Y38014D01*
X58326Y38016D01*
X58329Y38021D01*
X58333Y38027D01*
X58349Y38030D01*
X58357Y38032D01*
X58361Y38036D01*
X58363Y38039D01*
X58366Y38039D01*
X58370Y38038D01*
D02*
G37*
G36*
X41030Y37509D02*
X41052Y37508D01*
X41072Y37504D01*
X41091Y37500D01*
X41108Y37495D01*
X41125Y37490D01*
X41139Y37484D01*
X41153Y37478D01*
X41164Y37472D01*
X41175Y37466D01*
X41184Y37461D01*
X41192Y37456D01*
X41198Y37452D01*
X41202Y37448D01*
X41204Y37447D01*
X41205Y37446D01*
X41218Y37433D01*
X41230Y37419D01*
X41240Y37405D01*
X41249Y37390D01*
X41257Y37374D01*
X41264Y37358D01*
X41270Y37343D01*
X41275Y37329D01*
X41278Y37314D01*
X41282Y37301D01*
X41284Y37290D01*
X41287Y37279D01*
X41288Y37271D01*
X41288Y37264D01*
X41289Y37261D01*
Y37259D01*
X41180Y37248D01*
X41179Y37263D01*
X41178Y37277D01*
X41175Y37290D01*
X41173Y37302D01*
X41169Y37313D01*
X41165Y37324D01*
X41161Y37334D01*
X41157Y37342D01*
X41153Y37350D01*
X41148Y37357D01*
X41144Y37363D01*
X41141Y37367D01*
X41138Y37370D01*
X41136Y37374D01*
X41135Y37374D01*
X41134Y37375D01*
X41125Y37384D01*
X41115Y37391D01*
X41105Y37397D01*
X41095Y37402D01*
X41074Y37411D01*
X41054Y37416D01*
X41046Y37418D01*
X41037Y37419D01*
X41029Y37420D01*
X41023Y37421D01*
X41018Y37422D01*
X41010D01*
X40996Y37421D01*
X40984Y37420D01*
X40961Y37415D01*
X40940Y37408D01*
X40931Y37404D01*
X40923Y37400D01*
X40916Y37396D01*
X40910Y37391D01*
X40904Y37388D01*
X40900Y37385D01*
X40896Y37382D01*
X40893Y37380D01*
X40892Y37379D01*
X40891Y37378D01*
X40883Y37369D01*
X40876Y37361D01*
X40870Y37351D01*
X40865Y37343D01*
X40856Y37325D01*
X40851Y37308D01*
X40848Y37293D01*
X40847Y37287D01*
X40846Y37282D01*
X40845Y37277D01*
Y37273D01*
Y37272D01*
Y37271D01*
X40846Y37260D01*
X40848Y37248D01*
X40850Y37237D01*
X40853Y37225D01*
X40861Y37204D01*
X40871Y37184D01*
X40876Y37176D01*
X40880Y37167D01*
X40884Y37160D01*
X40889Y37155D01*
X40891Y37149D01*
X40894Y37146D01*
X40895Y37143D01*
X40896Y37143D01*
X40906Y37129D01*
X40919Y37115D01*
X40933Y37100D01*
X40947Y37085D01*
X40978Y37054D01*
X41011Y37025D01*
X41026Y37011D01*
X41040Y36998D01*
X41053Y36986D01*
X41065Y36977D01*
X41074Y36969D01*
X41082Y36963D01*
X41086Y36959D01*
X41088Y36958D01*
X41104Y36944D01*
X41120Y36930D01*
X41135Y36918D01*
X41148Y36906D01*
X41160Y36894D01*
X41172Y36883D01*
X41182Y36873D01*
X41192Y36864D01*
X41200Y36856D01*
X41207Y36848D01*
X41213Y36841D01*
X41218Y36836D01*
X41222Y36832D01*
X41225Y36828D01*
X41226Y36827D01*
X41227Y36826D01*
X41244Y36805D01*
X41259Y36784D01*
X41271Y36765D01*
X41281Y36747D01*
X41288Y36732D01*
X41291Y36726D01*
X41293Y36721D01*
X41295Y36716D01*
X41297Y36713D01*
X41298Y36711D01*
Y36710D01*
X41302Y36697D01*
X41305Y36684D01*
X41307Y36671D01*
X41309Y36660D01*
X41310Y36650D01*
Y36643D01*
Y36638D01*
Y36637D01*
Y36637D01*
X40735D01*
Y36739D01*
X41162D01*
X41155Y36750D01*
X41147Y36761D01*
X41140Y36770D01*
X41133Y36779D01*
X41126Y36786D01*
X41121Y36792D01*
X41118Y36796D01*
X41117Y36797D01*
X41111Y36803D01*
X41103Y36810D01*
X41095Y36818D01*
X41085Y36827D01*
X41065Y36845D01*
X41045Y36862D01*
X41024Y36879D01*
X41016Y36887D01*
X41008Y36894D01*
X41002Y36899D01*
X40997Y36903D01*
X40994Y36906D01*
X40993Y36907D01*
X40973Y36924D01*
X40953Y36941D01*
X40935Y36957D01*
X40919Y36971D01*
X40904Y36985D01*
X40891Y36997D01*
X40878Y37009D01*
X40868Y37020D01*
X40859Y37029D01*
X40850Y37036D01*
X40844Y37043D01*
X40838Y37049D01*
X40834Y37053D01*
X40832Y37057D01*
X40830Y37059D01*
X40829Y37059D01*
X40811Y37080D01*
X40797Y37099D01*
X40784Y37118D01*
X40775Y37133D01*
X40767Y37147D01*
X40765Y37152D01*
X40762Y37157D01*
X40760Y37160D01*
X40759Y37163D01*
X40758Y37165D01*
Y37166D01*
X40750Y37184D01*
X40745Y37203D01*
X40741Y37221D01*
X40738Y37236D01*
X40737Y37250D01*
Y37255D01*
X40736Y37260D01*
Y37263D01*
Y37266D01*
Y37267D01*
Y37268D01*
X40737Y37287D01*
X40739Y37305D01*
X40742Y37323D01*
X40747Y37339D01*
X40753Y37354D01*
X40759Y37368D01*
X40765Y37381D01*
X40772Y37393D01*
X40779Y37404D01*
X40786Y37413D01*
X40792Y37421D01*
X40798Y37428D01*
X40802Y37434D01*
X40805Y37437D01*
X40808Y37440D01*
X40809Y37441D01*
X40823Y37453D01*
X40838Y37464D01*
X40854Y37473D01*
X40871Y37481D01*
X40887Y37487D01*
X40904Y37493D01*
X40920Y37498D01*
X40935Y37502D01*
X40950Y37504D01*
X40964Y37507D01*
X40976Y37509D01*
X40986Y37509D01*
X40995D01*
X41001Y37510D01*
X41007D01*
X41030Y37509D01*
D02*
G37*
G36*
X37685Y36637D02*
X37586D01*
Y36715D01*
X37573Y36699D01*
X37560Y36684D01*
X37546Y36671D01*
X37532Y36661D01*
X37517Y36652D01*
X37503Y36645D01*
X37488Y36638D01*
X37475Y36634D01*
X37462Y36630D01*
X37450Y36627D01*
X37439Y36625D01*
X37430Y36624D01*
X37422Y36623D01*
X37416Y36622D01*
X37411D01*
X37391Y36623D01*
X37370Y36626D01*
X37352Y36631D01*
X37334Y36636D01*
X37317Y36643D01*
X37301Y36650D01*
X37286Y36658D01*
X37273Y36666D01*
X37261Y36675D01*
X37251Y36682D01*
X37241Y36690D01*
X37234Y36697D01*
X37228Y36702D01*
X37223Y36707D01*
X37220Y36710D01*
X37219Y36710D01*
X37205Y36727D01*
X37193Y36747D01*
X37182Y36767D01*
X37172Y36787D01*
X37165Y36808D01*
X37158Y36828D01*
X37153Y36849D01*
X37149Y36869D01*
X37145Y36888D01*
X37143Y36905D01*
X37141Y36921D01*
X37139Y36935D01*
Y36946D01*
X37138Y36954D01*
Y36957D01*
Y36959D01*
Y36960D01*
Y36961D01*
X37139Y36986D01*
X37142Y37010D01*
X37144Y37031D01*
X37148Y37051D01*
X37150Y37059D01*
X37152Y37067D01*
X37154Y37073D01*
X37155Y37079D01*
X37156Y37083D01*
X37157Y37087D01*
X37158Y37088D01*
Y37089D01*
X37166Y37111D01*
X37174Y37131D01*
X37183Y37149D01*
X37191Y37163D01*
X37199Y37175D01*
X37202Y37180D01*
X37205Y37184D01*
X37207Y37188D01*
X37209Y37190D01*
X37211Y37191D01*
Y37192D01*
X37224Y37207D01*
X37238Y37220D01*
X37252Y37232D01*
X37266Y37241D01*
X37278Y37249D01*
X37288Y37254D01*
X37291Y37256D01*
X37294Y37257D01*
X37296Y37258D01*
X37296D01*
X37316Y37266D01*
X37335Y37272D01*
X37354Y37276D01*
X37370Y37279D01*
X37385Y37281D01*
X37391D01*
X37396Y37282D01*
X37406D01*
X37425Y37281D01*
X37443Y37278D01*
X37461Y37274D01*
X37477Y37268D01*
X37493Y37262D01*
X37507Y37255D01*
X37520Y37247D01*
X37532Y37239D01*
X37542Y37232D01*
X37551Y37224D01*
X37560Y37216D01*
X37566Y37211D01*
X37571Y37205D01*
X37575Y37200D01*
X37577Y37198D01*
X37578Y37197D01*
Y37507D01*
X37685D01*
Y36637D01*
D02*
G37*
G36*
X39221D02*
X39106D01*
Y37047D01*
X38654D01*
Y36637D01*
X38538D01*
Y37507D01*
X38654D01*
Y37149D01*
X39106D01*
Y37507D01*
X39221D01*
Y36637D01*
D02*
G37*
G36*
X43750Y37004D02*
Y36979D01*
X43748Y36955D01*
X43746Y36933D01*
X43745Y36912D01*
X43742Y36892D01*
X43739Y36874D01*
X43736Y36858D01*
X43733Y36843D01*
X43730Y36830D01*
X43727Y36818D01*
X43724Y36809D01*
X43722Y36800D01*
X43720Y36795D01*
X43718Y36789D01*
X43717Y36787D01*
Y36786D01*
X43710Y36772D01*
X43702Y36758D01*
X43694Y36745D01*
X43685Y36733D01*
X43677Y36722D01*
X43667Y36712D01*
X43658Y36703D01*
X43649Y36695D01*
X43640Y36688D01*
X43632Y36682D01*
X43625Y36676D01*
X43619Y36671D01*
X43614Y36668D01*
X43610Y36665D01*
X43607Y36665D01*
X43606Y36664D01*
X43591Y36656D01*
X43575Y36650D01*
X43559Y36644D01*
X43542Y36640D01*
X43509Y36632D01*
X43492Y36630D01*
X43476Y36627D01*
X43462Y36626D01*
X43448Y36625D01*
X43436Y36624D01*
X43426Y36623D01*
X43418Y36622D01*
X43406D01*
X43383Y36623D01*
X43361Y36624D01*
X43340Y36626D01*
X43321Y36630D01*
X43303Y36633D01*
X43286Y36637D01*
X43271Y36642D01*
X43257Y36646D01*
X43244Y36650D01*
X43234Y36654D01*
X43225Y36659D01*
X43216Y36662D01*
X43211Y36665D01*
X43206Y36668D01*
X43204Y36669D01*
X43203Y36670D01*
X43188Y36679D01*
X43176Y36689D01*
X43164Y36699D01*
X43153Y36710D01*
X43143Y36721D01*
X43134Y36731D01*
X43126Y36741D01*
X43120Y36750D01*
X43114Y36760D01*
X43109Y36768D01*
X43104Y36776D01*
X43101Y36783D01*
X43098Y36788D01*
X43097Y36792D01*
X43095Y36795D01*
Y36795D01*
X43090Y36811D01*
X43085Y36827D01*
X43078Y36861D01*
X43073Y36896D01*
X43070Y36913D01*
X43069Y36929D01*
X43068Y36944D01*
X43067Y36958D01*
X43066Y36971D01*
Y36982D01*
X43065Y36992D01*
Y36998D01*
Y37003D01*
Y37004D01*
Y37507D01*
X43181D01*
Y37004D01*
X43182Y36975D01*
X43183Y36947D01*
X43186Y36923D01*
X43189Y36901D01*
X43194Y36880D01*
X43198Y36862D01*
X43203Y36846D01*
X43208Y36832D01*
X43213Y36820D01*
X43218Y36810D01*
X43222Y36801D01*
X43227Y36795D01*
X43230Y36789D01*
X43233Y36785D01*
X43234Y36783D01*
X43235Y36783D01*
X43246Y36772D01*
X43258Y36764D01*
X43272Y36756D01*
X43286Y36750D01*
X43301Y36744D01*
X43316Y36739D01*
X43346Y36733D01*
X43360Y36731D01*
X43373Y36729D01*
X43385Y36727D01*
X43396Y36727D01*
X43404Y36726D01*
X43416D01*
X43442Y36727D01*
X43467Y36730D01*
X43488Y36735D01*
X43497Y36738D01*
X43507Y36740D01*
X43514Y36743D01*
X43521Y36745D01*
X43527Y36748D01*
X43532Y36750D01*
X43537Y36752D01*
X43539Y36754D01*
X43541Y36755D01*
X43542D01*
X43559Y36767D01*
X43575Y36780D01*
X43587Y36794D01*
X43597Y36806D01*
X43604Y36818D01*
X43610Y36828D01*
X43611Y36832D01*
X43613Y36834D01*
X43614Y36836D01*
Y36837D01*
X43617Y36848D01*
X43621Y36860D01*
X43623Y36873D01*
X43626Y36886D01*
X43629Y36913D01*
X43632Y36941D01*
X43632Y36954D01*
X43633Y36966D01*
Y36976D01*
X43634Y36986D01*
Y36993D01*
Y36999D01*
Y37003D01*
Y37004D01*
Y37507D01*
X43750D01*
Y37004D01*
D02*
G37*
G36*
X38363Y36876D02*
Y36852D01*
X38362Y36832D01*
X38361Y36815D01*
X38359Y36800D01*
X38358Y36789D01*
X38358Y36782D01*
X38357Y36778D01*
Y36776D01*
X38353Y36759D01*
X38347Y36744D01*
X38342Y36730D01*
X38337Y36719D01*
X38332Y36710D01*
X38328Y36703D01*
X38325Y36699D01*
X38325Y36697D01*
X38314Y36685D01*
X38303Y36675D01*
X38291Y36665D01*
X38280Y36658D01*
X38268Y36652D01*
X38260Y36648D01*
X38257Y36646D01*
X38254Y36644D01*
X38253Y36643D01*
X38252D01*
X38234Y36637D01*
X38216Y36632D01*
X38198Y36627D01*
X38182Y36625D01*
X38168Y36623D01*
X38162D01*
X38157Y36622D01*
X38148D01*
X38125Y36623D01*
X38103Y36626D01*
X38083Y36632D01*
X38064Y36639D01*
X38046Y36647D01*
X38030Y36656D01*
X38015Y36665D01*
X38001Y36676D01*
X37989Y36685D01*
X37978Y36694D01*
X37970Y36704D01*
X37962Y36712D01*
X37956Y36718D01*
X37952Y36724D01*
X37949Y36727D01*
X37948Y36728D01*
Y36637D01*
X37852D01*
Y37267D01*
X37959D01*
Y36929D01*
Y36914D01*
X37960Y36901D01*
X37961Y36887D01*
X37962Y36875D01*
X37964Y36864D01*
X37965Y36854D01*
X37967Y36845D01*
X37968Y36837D01*
X37970Y36829D01*
X37971Y36823D01*
X37973Y36818D01*
X37975Y36813D01*
X37976Y36810D01*
X37976Y36807D01*
X37977Y36806D01*
Y36806D01*
X37985Y36790D01*
X37994Y36778D01*
X38004Y36766D01*
X38014Y36756D01*
X38023Y36749D01*
X38031Y36743D01*
X38036Y36739D01*
X38037Y36739D01*
X38038D01*
X38054Y36730D01*
X38069Y36724D01*
X38084Y36720D01*
X38098Y36717D01*
X38110Y36716D01*
X38118Y36714D01*
X38127D01*
X38144Y36715D01*
X38159Y36717D01*
X38173Y36722D01*
X38184Y36726D01*
X38195Y36730D01*
X38201Y36734D01*
X38206Y36737D01*
X38207Y36738D01*
X38218Y36747D01*
X38228Y36758D01*
X38235Y36769D01*
X38240Y36780D01*
X38245Y36789D01*
X38247Y36797D01*
X38249Y36802D01*
X38250Y36803D01*
Y36804D01*
X38251Y36810D01*
X38252Y36817D01*
X38252Y36825D01*
X38253Y36834D01*
X38254Y36852D01*
X38255Y36871D01*
X38256Y36889D01*
Y36896D01*
Y36903D01*
Y36909D01*
Y36913D01*
Y36916D01*
Y36917D01*
Y37267D01*
X38363D01*
Y36876D01*
D02*
G37*
G36*
X42068Y36637D02*
X41737D01*
X41707Y36637D01*
X41680Y36639D01*
X41667Y36640D01*
X41656Y36641D01*
X41645Y36643D01*
X41636Y36644D01*
X41626Y36645D01*
X41619Y36647D01*
X41612Y36648D01*
X41607Y36649D01*
X41603Y36649D01*
X41599Y36650D01*
X41597Y36651D01*
X41597D01*
X41576Y36657D01*
X41558Y36664D01*
X41541Y36671D01*
X41527Y36677D01*
X41516Y36684D01*
X41507Y36689D01*
X41502Y36693D01*
X41501Y36694D01*
X41487Y36705D01*
X41474Y36718D01*
X41463Y36732D01*
X41455Y36744D01*
X41447Y36756D01*
X41441Y36766D01*
X41440Y36769D01*
X41438Y36772D01*
X41437Y36773D01*
Y36774D01*
X41428Y36795D01*
X41422Y36814D01*
X41417Y36834D01*
X41414Y36851D01*
X41412Y36866D01*
X41411Y36872D01*
X41411Y36878D01*
Y36882D01*
Y36885D01*
Y36887D01*
Y36888D01*
X41411Y36902D01*
X41412Y36916D01*
X41417Y36941D01*
X41424Y36963D01*
X41428Y36973D01*
X41432Y36982D01*
X41436Y36991D01*
X41440Y36998D01*
X41444Y37004D01*
X41447Y37009D01*
X41450Y37014D01*
X41452Y37017D01*
X41453Y37019D01*
X41454Y37020D01*
X41462Y37030D01*
X41471Y37039D01*
X41490Y37056D01*
X41511Y37070D01*
X41530Y37081D01*
X41548Y37089D01*
X41556Y37093D01*
X41563Y37095D01*
X41568Y37097D01*
X41572Y37098D01*
X41575Y37099D01*
X41575D01*
X41554Y37111D01*
X41535Y37124D01*
X41519Y37138D01*
X41507Y37150D01*
X41496Y37161D01*
X41490Y37170D01*
X41487Y37173D01*
X41485Y37176D01*
X41484Y37177D01*
Y37178D01*
X41473Y37197D01*
X41466Y37216D01*
X41461Y37233D01*
X41456Y37250D01*
X41455Y37263D01*
X41454Y37269D01*
Y37274D01*
X41453Y37278D01*
Y37281D01*
Y37283D01*
Y37284D01*
X41455Y37306D01*
X41458Y37327D01*
X41464Y37346D01*
X41470Y37363D01*
X41477Y37378D01*
X41479Y37384D01*
X41483Y37389D01*
X41484Y37393D01*
X41486Y37396D01*
X41488Y37397D01*
Y37398D01*
X41501Y37418D01*
X41517Y37434D01*
X41533Y37448D01*
X41547Y37459D01*
X41561Y37469D01*
X41567Y37472D01*
X41572Y37475D01*
X41576Y37477D01*
X41580Y37479D01*
X41581Y37480D01*
X41582D01*
X41594Y37485D01*
X41606Y37489D01*
X41632Y37496D01*
X41659Y37500D01*
X41685Y37503D01*
X41696Y37504D01*
X41707Y37505D01*
X41717Y37506D01*
X41726Y37507D01*
X42068D01*
Y36637D01*
D02*
G37*
G36*
X40560D02*
X40439D01*
Y36758D01*
X40560D01*
Y36637D01*
D02*
G37*
G36*
X42607Y37521D02*
X42637Y37518D01*
X42650Y37515D01*
X42664Y37513D01*
X42676Y37510D01*
X42688Y37508D01*
X42698Y37504D01*
X42707Y37502D01*
X42715Y37499D01*
X42722Y37498D01*
X42727Y37495D01*
X42731Y37494D01*
X42733Y37492D01*
X42734D01*
X42760Y37481D01*
X42781Y37466D01*
X42800Y37452D01*
X42815Y37437D01*
X42828Y37424D01*
X42832Y37419D01*
X42836Y37414D01*
X42839Y37411D01*
X42841Y37408D01*
X42842Y37406D01*
X42843Y37405D01*
X42850Y37394D01*
X42855Y37383D01*
X42864Y37362D01*
X42871Y37340D01*
X42875Y37322D01*
X42877Y37313D01*
X42879Y37306D01*
X42879Y37299D01*
Y37293D01*
X42880Y37289D01*
Y37284D01*
Y37283D01*
Y37282D01*
X42879Y37260D01*
X42875Y37239D01*
X42871Y37221D01*
X42865Y37205D01*
X42859Y37192D01*
X42856Y37186D01*
X42855Y37182D01*
X42852Y37178D01*
X42851Y37176D01*
X42850Y37174D01*
Y37173D01*
X42837Y37156D01*
X42823Y37140D01*
X42807Y37127D01*
X42792Y37115D01*
X42778Y37104D01*
X42772Y37101D01*
X42767Y37098D01*
X42763Y37095D01*
X42760Y37093D01*
X42758Y37092D01*
X42757D01*
X42747Y37087D01*
X42736Y37082D01*
X42724Y37077D01*
X42710Y37072D01*
X42682Y37064D01*
X42655Y37055D01*
X42642Y37051D01*
X42630Y37048D01*
X42618Y37045D01*
X42609Y37042D01*
X42600Y37040D01*
X42594Y37039D01*
X42591Y37037D01*
X42589D01*
X42568Y37032D01*
X42548Y37027D01*
X42530Y37023D01*
X42514Y37019D01*
X42500Y37015D01*
X42487Y37012D01*
X42476Y37008D01*
X42467Y37006D01*
X42458Y37003D01*
X42452Y37001D01*
X42446Y36999D01*
X42442Y36997D01*
X42439Y36997D01*
X42436Y36996D01*
X42435Y36995D01*
X42415Y36987D01*
X42399Y36979D01*
X42385Y36970D01*
X42374Y36962D01*
X42366Y36955D01*
X42360Y36949D01*
X42356Y36946D01*
X42356Y36944D01*
X42348Y36932D01*
X42342Y36920D01*
X42338Y36908D01*
X42334Y36897D01*
X42333Y36887D01*
X42332Y36879D01*
Y36874D01*
Y36873D01*
Y36873D01*
X42333Y36857D01*
X42335Y36844D01*
X42339Y36831D01*
X42344Y36820D01*
X42349Y36811D01*
X42352Y36804D01*
X42356Y36800D01*
X42356Y36798D01*
X42367Y36786D01*
X42379Y36775D01*
X42391Y36767D01*
X42403Y36759D01*
X42414Y36752D01*
X42424Y36748D01*
X42427Y36746D01*
X42429Y36745D01*
X42431Y36744D01*
X42432D01*
X42452Y36738D01*
X42471Y36733D01*
X42491Y36730D01*
X42508Y36727D01*
X42524Y36726D01*
X42530D01*
X42536Y36725D01*
X42547D01*
X42575Y36726D01*
X42600Y36729D01*
X42623Y36733D01*
X42633Y36735D01*
X42643Y36738D01*
X42651Y36740D01*
X42659Y36743D01*
X42665Y36744D01*
X42671Y36746D01*
X42676Y36748D01*
X42679Y36750D01*
X42681Y36750D01*
X42682D01*
X42702Y36761D01*
X42720Y36772D01*
X42735Y36783D01*
X42747Y36795D01*
X42756Y36804D01*
X42763Y36812D01*
X42766Y36817D01*
X42768Y36817D01*
Y36818D01*
X42778Y36835D01*
X42785Y36853D01*
X42792Y36871D01*
X42796Y36888D01*
X42800Y36903D01*
X42801Y36909D01*
X42802Y36915D01*
X42803Y36920D01*
X42804Y36924D01*
Y36925D01*
Y36926D01*
X42913Y36917D01*
X42912Y36901D01*
X42910Y36885D01*
X42905Y36856D01*
X42901Y36841D01*
X42897Y36828D01*
X42893Y36817D01*
X42889Y36806D01*
X42884Y36795D01*
X42880Y36786D01*
X42876Y36778D01*
X42873Y36772D01*
X42870Y36767D01*
X42868Y36763D01*
X42867Y36761D01*
X42866Y36760D01*
X42847Y36736D01*
X42827Y36715D01*
X42806Y36697D01*
X42786Y36682D01*
X42777Y36676D01*
X42768Y36671D01*
X42760Y36666D01*
X42753Y36663D01*
X42748Y36660D01*
X42744Y36658D01*
X42741Y36657D01*
X42740Y36656D01*
X42725Y36650D01*
X42709Y36645D01*
X42676Y36637D01*
X42643Y36631D01*
X42626Y36628D01*
X42611Y36626D01*
X42597Y36625D01*
X42584Y36624D01*
X42572Y36623D01*
X42562D01*
X42553Y36622D01*
X42542D01*
X42508Y36624D01*
X42477Y36627D01*
X42463Y36630D01*
X42448Y36633D01*
X42435Y36636D01*
X42424Y36639D01*
X42413Y36643D01*
X42403Y36645D01*
X42395Y36649D01*
X42388Y36651D01*
X42383Y36653D01*
X42379Y36654D01*
X42376Y36656D01*
X42375D01*
X42349Y36670D01*
X42326Y36685D01*
X42316Y36694D01*
X42306Y36701D01*
X42298Y36709D01*
X42289Y36716D01*
X42283Y36723D01*
X42277Y36730D01*
X42272Y36736D01*
X42268Y36741D01*
X42265Y36745D01*
X42262Y36749D01*
X42261Y36750D01*
X42260Y36751D01*
X42254Y36763D01*
X42247Y36774D01*
X42238Y36797D01*
X42230Y36819D01*
X42226Y36840D01*
X42224Y36849D01*
X42222Y36857D01*
X42221Y36864D01*
Y36870D01*
X42221Y36875D01*
Y36879D01*
Y36881D01*
Y36882D01*
Y36895D01*
X42222Y36907D01*
X42227Y36931D01*
X42232Y36952D01*
X42238Y36970D01*
X42242Y36978D01*
X42245Y36986D01*
X42249Y36992D01*
X42251Y36997D01*
X42254Y37001D01*
X42255Y37003D01*
X42256Y37005D01*
X42257Y37006D01*
X42265Y37016D01*
X42272Y37025D01*
X42290Y37042D01*
X42309Y37058D01*
X42327Y37070D01*
X42344Y37081D01*
X42350Y37085D01*
X42356Y37088D01*
X42362Y37091D01*
X42366Y37093D01*
X42368Y37094D01*
X42369D01*
X42380Y37098D01*
X42393Y37104D01*
X42407Y37108D01*
X42422Y37113D01*
X42453Y37122D01*
X42485Y37131D01*
X42501Y37135D01*
X42515Y37138D01*
X42529Y37142D01*
X42540Y37144D01*
X42549Y37146D01*
X42557Y37148D01*
X42561Y37149D01*
X42563D01*
X42587Y37155D01*
X42610Y37161D01*
X42631Y37167D01*
X42648Y37173D01*
X42665Y37178D01*
X42679Y37183D01*
X42691Y37188D01*
X42702Y37193D01*
X42710Y37197D01*
X42718Y37201D01*
X42724Y37205D01*
X42728Y37207D01*
X42732Y37209D01*
X42734Y37211D01*
X42735Y37212D01*
X42736D01*
X42747Y37224D01*
X42755Y37237D01*
X42761Y37250D01*
X42765Y37262D01*
X42767Y37273D01*
X42768Y37282D01*
X42769Y37285D01*
Y37288D01*
Y37289D01*
Y37290D01*
X42768Y37300D01*
X42767Y37309D01*
X42761Y37326D01*
X42754Y37342D01*
X42745Y37356D01*
X42737Y37366D01*
X42729Y37374D01*
X42723Y37380D01*
X42722Y37381D01*
X42722D01*
X42712Y37388D01*
X42701Y37394D01*
X42690Y37399D01*
X42677Y37404D01*
X42653Y37411D01*
X42627Y37415D01*
X42616Y37417D01*
X42605Y37419D01*
X42595Y37419D01*
X42586D01*
X42580Y37420D01*
X42570D01*
X42552Y37419D01*
X42534Y37419D01*
X42519Y37416D01*
X42503Y37413D01*
X42490Y37410D01*
X42478Y37407D01*
X42467Y37403D01*
X42457Y37399D01*
X42447Y37395D01*
X42440Y37391D01*
X42433Y37388D01*
X42428Y37385D01*
X42424Y37382D01*
X42421Y37380D01*
X42419Y37379D01*
X42418Y37378D01*
X42409Y37369D01*
X42401Y37360D01*
X42394Y37351D01*
X42387Y37340D01*
X42376Y37320D01*
X42368Y37300D01*
X42366Y37290D01*
X42363Y37282D01*
X42361Y37274D01*
X42360Y37267D01*
X42358Y37261D01*
Y37257D01*
X42357Y37255D01*
Y37254D01*
X42247Y37262D01*
X42248Y37277D01*
X42249Y37290D01*
X42255Y37316D01*
X42262Y37340D01*
X42266Y37350D01*
X42270Y37359D01*
X42274Y37368D01*
X42277Y37376D01*
X42281Y37383D01*
X42284Y37389D01*
X42287Y37393D01*
X42289Y37396D01*
X42289Y37398D01*
X42290Y37399D01*
X42306Y37420D01*
X42325Y37439D01*
X42344Y37454D01*
X42362Y37468D01*
X42379Y37478D01*
X42385Y37481D01*
X42392Y37485D01*
X42397Y37487D01*
X42401Y37489D01*
X42403Y37491D01*
X42404D01*
X42433Y37501D01*
X42462Y37509D01*
X42491Y37514D01*
X42504Y37516D01*
X42517Y37518D01*
X42529Y37520D01*
X42540Y37520D01*
X42550Y37521D01*
X42558D01*
X42565Y37522D01*
X42575D01*
X42607Y37521D01*
D02*
G37*
G36*
X40017Y37509D02*
X40033Y37508D01*
X40049Y37505D01*
X40063Y37503D01*
X40078Y37498D01*
X40090Y37494D01*
X40102Y37490D01*
X40113Y37485D01*
X40123Y37480D01*
X40132Y37475D01*
X40139Y37471D01*
X40146Y37467D01*
X40150Y37464D01*
X40154Y37462D01*
X40156Y37460D01*
X40157Y37459D01*
X40168Y37449D01*
X40179Y37438D01*
X40198Y37415D01*
X40214Y37391D01*
X40227Y37368D01*
X40233Y37357D01*
X40237Y37346D01*
X40242Y37338D01*
X40245Y37329D01*
X40248Y37323D01*
X40249Y37318D01*
X40251Y37315D01*
Y37314D01*
X40256Y37295D01*
X40261Y37277D01*
X40269Y37235D01*
X40275Y37194D01*
X40276Y37174D01*
X40278Y37155D01*
X40280Y37136D01*
X40281Y37119D01*
X40281Y37104D01*
Y37091D01*
X40282Y37081D01*
Y37072D01*
Y37067D01*
Y37066D01*
Y37065D01*
X40281Y37021D01*
X40279Y36980D01*
X40275Y36942D01*
X40269Y36907D01*
X40263Y36875D01*
X40255Y36846D01*
X40248Y36820D01*
X40239Y36797D01*
X40231Y36777D01*
X40224Y36759D01*
X40216Y36744D01*
X40210Y36733D01*
X40204Y36723D01*
X40200Y36716D01*
X40197Y36713D01*
X40197Y36711D01*
X40183Y36696D01*
X40168Y36682D01*
X40152Y36670D01*
X40135Y36660D01*
X40119Y36651D01*
X40102Y36644D01*
X40086Y36638D01*
X40071Y36633D01*
X40056Y36630D01*
X40043Y36627D01*
X40030Y36625D01*
X40020Y36624D01*
X40011Y36623D01*
X40005Y36622D01*
X39999D01*
X39981Y36623D01*
X39965Y36625D01*
X39949Y36627D01*
X39934Y36630D01*
X39920Y36634D01*
X39907Y36638D01*
X39895Y36643D01*
X39884Y36648D01*
X39875Y36653D01*
X39866Y36657D01*
X39859Y36661D01*
X39853Y36665D01*
X39848Y36668D01*
X39844Y36671D01*
X39843Y36672D01*
X39842Y36673D01*
X39831Y36683D01*
X39820Y36694D01*
X39800Y36717D01*
X39784Y36742D01*
X39771Y36765D01*
X39765Y36776D01*
X39761Y36786D01*
X39757Y36795D01*
X39753Y36803D01*
X39751Y36809D01*
X39749Y36814D01*
X39747Y36817D01*
Y36818D01*
X39742Y36837D01*
X39736Y36856D01*
X39729Y36896D01*
X39723Y36938D01*
X39721Y36958D01*
X39719Y36977D01*
X39718Y36996D01*
X39717Y37012D01*
X39716Y37027D01*
Y37040D01*
X39715Y37051D01*
Y37059D01*
Y37064D01*
Y37065D01*
Y37089D01*
X39716Y37111D01*
X39717Y37132D01*
X39719Y37152D01*
X39720Y37171D01*
X39722Y37187D01*
X39724Y37203D01*
X39725Y37216D01*
X39727Y37229D01*
X39729Y37240D01*
X39730Y37250D01*
X39732Y37257D01*
X39734Y37263D01*
X39735Y37267D01*
X39736Y37270D01*
Y37271D01*
X39743Y37298D01*
X39753Y37323D01*
X39761Y37346D01*
X39765Y37355D01*
X39770Y37364D01*
X39774Y37372D01*
X39777Y37380D01*
X39781Y37385D01*
X39783Y37391D01*
X39786Y37395D01*
X39787Y37397D01*
X39789Y37399D01*
Y37400D01*
X39803Y37419D01*
X39817Y37436D01*
X39832Y37449D01*
X39845Y37461D01*
X39858Y37469D01*
X39867Y37476D01*
X39871Y37479D01*
X39874Y37480D01*
X39876Y37481D01*
X39876D01*
X39897Y37491D01*
X39918Y37498D01*
X39938Y37503D01*
X39957Y37507D01*
X39966Y37508D01*
X39974Y37509D01*
X39981Y37509D01*
X39987Y37510D01*
X39999D01*
X40017Y37509D01*
D02*
G37*
G36*
X55290Y35784D02*
Y35477D01*
X55194D01*
Y35784D01*
X54904Y36202D01*
X55016D01*
X55157Y35989D01*
X55173Y35962D01*
X55189Y35938D01*
X55196Y35928D01*
X55202Y35917D01*
X55209Y35907D01*
X55214Y35898D01*
X55219Y35890D01*
X55224Y35882D01*
X55227Y35876D01*
X55231Y35871D01*
X55233Y35867D01*
X55235Y35864D01*
X55236Y35862D01*
X55236Y35861D01*
X55249Y35884D01*
X55263Y35906D01*
X55275Y35926D01*
X55281Y35936D01*
X55286Y35945D01*
X55292Y35953D01*
X55296Y35960D01*
X55300Y35967D01*
X55304Y35972D01*
X55306Y35977D01*
X55309Y35980D01*
X55310Y35982D01*
X55311Y35983D01*
X55453Y36202D01*
X55570D01*
X55290Y35784D01*
D02*
G37*
G36*
X55879Y35695D02*
X55605D01*
Y35785D01*
X55879D01*
Y35695D01*
D02*
G37*
G36*
X59441Y35477D02*
X59348D01*
Y36095D01*
X59138Y35477D01*
X59052D01*
X58840Y36084D01*
Y35477D01*
X58747D01*
Y36202D01*
X58877D01*
X59051Y35697D01*
X59056Y35683D01*
X59060Y35670D01*
X59065Y35658D01*
X59068Y35647D01*
X59072Y35636D01*
X59075Y35627D01*
X59078Y35618D01*
X59080Y35611D01*
X59083Y35603D01*
X59084Y35597D01*
X59086Y35592D01*
X59088Y35588D01*
X59089Y35585D01*
X59089Y35583D01*
X59090Y35582D01*
Y35581D01*
X59092Y35588D01*
X59094Y35596D01*
X59100Y35613D01*
X59106Y35630D01*
X59111Y35648D01*
X59114Y35656D01*
X59116Y35664D01*
X59119Y35671D01*
X59120Y35676D01*
X59123Y35681D01*
X59123Y35686D01*
X59125Y35688D01*
Y35688D01*
X59297Y36202D01*
X59441D01*
Y35477D01*
D02*
G37*
G36*
X60549Y36214D02*
X60567Y36213D01*
X60583Y36211D01*
X60599Y36208D01*
X60615Y36205D01*
X60630Y36201D01*
X60643Y36197D01*
X60655Y36193D01*
X60667Y36189D01*
X60677Y36185D01*
X60687Y36181D01*
X60694Y36178D01*
X60700Y36176D01*
X60704Y36173D01*
X60707Y36172D01*
X60708Y36171D01*
X60723Y36163D01*
X60736Y36153D01*
X60749Y36143D01*
X60761Y36132D01*
X60772Y36122D01*
X60782Y36111D01*
X60791Y36100D01*
X60799Y36091D01*
X60807Y36081D01*
X60813Y36071D01*
X60818Y36064D01*
X60823Y36057D01*
X60827Y36051D01*
X60829Y36046D01*
X60830Y36043D01*
X60831Y36042D01*
X60839Y36026D01*
X60845Y36010D01*
X60851Y35993D01*
X60856Y35976D01*
X60860Y35960D01*
X60864Y35943D01*
X60866Y35927D01*
X60869Y35912D01*
X60871Y35898D01*
X60872Y35885D01*
X60873Y35874D01*
X60873Y35864D01*
X60874Y35856D01*
Y35850D01*
Y35846D01*
Y35845D01*
X60873Y35826D01*
X60873Y35807D01*
X60871Y35788D01*
X60869Y35771D01*
X60865Y35754D01*
X60862Y35737D01*
X60859Y35722D01*
X60855Y35708D01*
X60852Y35695D01*
X60848Y35684D01*
X60844Y35674D01*
X60842Y35666D01*
X60840Y35659D01*
X60837Y35654D01*
X60837Y35652D01*
X60836Y35650D01*
X60828Y35634D01*
X60820Y35618D01*
X60811Y35604D01*
X60803Y35591D01*
X60793Y35578D01*
X60784Y35567D01*
X60775Y35557D01*
X60766Y35548D01*
X60757Y35539D01*
X60750Y35532D01*
X60743Y35526D01*
X60737Y35521D01*
X60732Y35517D01*
X60728Y35514D01*
X60726Y35513D01*
X60725Y35512D01*
X60711Y35504D01*
X60696Y35497D01*
X60679Y35490D01*
X60664Y35484D01*
X60648Y35480D01*
X60632Y35476D01*
X60616Y35473D01*
X60602Y35470D01*
X60587Y35469D01*
X60575Y35468D01*
X60563Y35466D01*
X60553Y35465D01*
X60545Y35465D01*
X60534D01*
X60513Y35465D01*
X60493Y35468D01*
X60474Y35470D01*
X60456Y35475D01*
X60439Y35479D01*
X60423Y35484D01*
X60408Y35489D01*
X60395Y35496D01*
X60384Y35501D01*
X60373Y35507D01*
X60364Y35512D01*
X60356Y35516D01*
X60350Y35521D01*
X60345Y35523D01*
X60342Y35526D01*
X60342Y35526D01*
X60328Y35538D01*
X60314Y35552D01*
X60303Y35566D01*
X60292Y35581D01*
X60282Y35596D01*
X60272Y35611D01*
X60265Y35625D01*
X60258Y35640D01*
X60252Y35654D01*
X60246Y35666D01*
X60242Y35678D01*
X60238Y35688D01*
X60236Y35695D01*
X60234Y35702D01*
X60233Y35705D01*
Y35707D01*
X60329Y35731D01*
X60333Y35715D01*
X60338Y35699D01*
X60343Y35684D01*
X60349Y35671D01*
X60355Y35659D01*
X60362Y35647D01*
X60368Y35637D01*
X60374Y35628D01*
X60380Y35620D01*
X60386Y35613D01*
X60391Y35606D01*
X60396Y35601D01*
X60399Y35598D01*
X60403Y35595D01*
X60404Y35594D01*
X60405Y35593D01*
X60415Y35585D01*
X60427Y35578D01*
X60438Y35572D01*
X60449Y35566D01*
X60461Y35562D01*
X60473Y35558D01*
X60494Y35552D01*
X60504Y35550D01*
X60513Y35549D01*
X60521Y35548D01*
X60528Y35548D01*
X60534Y35547D01*
X60541D01*
X60553Y35548D01*
X60566Y35548D01*
X60589Y35552D01*
X60609Y35557D01*
X60619Y35561D01*
X60628Y35564D01*
X60636Y35567D01*
X60643Y35570D01*
X60650Y35573D01*
X60655Y35576D01*
X60659Y35578D01*
X60662Y35579D01*
X60664Y35580D01*
X60665Y35581D01*
X60675Y35588D01*
X60684Y35595D01*
X60701Y35611D01*
X60716Y35628D01*
X60728Y35645D01*
X60737Y35660D01*
X60740Y35666D01*
X60743Y35672D01*
X60745Y35677D01*
X60747Y35681D01*
X60748Y35683D01*
Y35683D01*
X60757Y35710D01*
X60764Y35738D01*
X60769Y35766D01*
X60770Y35778D01*
X60772Y35790D01*
X60773Y35802D01*
X60774Y35812D01*
X60774Y35822D01*
Y35830D01*
X60775Y35836D01*
Y35841D01*
Y35845D01*
Y35846D01*
X60774Y35872D01*
X60772Y35897D01*
X60768Y35921D01*
X60766Y35932D01*
X60764Y35942D01*
X60762Y35951D01*
X60760Y35960D01*
X60757Y35967D01*
X60756Y35973D01*
X60755Y35978D01*
X60753Y35982D01*
X60752Y35984D01*
Y35984D01*
X60747Y35997D01*
X60743Y36008D01*
X60737Y36020D01*
X60730Y36030D01*
X60724Y36040D01*
X60718Y36049D01*
X60711Y36057D01*
X60704Y36064D01*
X60699Y36071D01*
X60693Y36076D01*
X60687Y36081D01*
X60683Y36086D01*
X60679Y36088D01*
X60676Y36091D01*
X60675Y36092D01*
X60674Y36093D01*
X60663Y36100D01*
X60652Y36106D01*
X60640Y36111D01*
X60629Y36116D01*
X60616Y36120D01*
X60605Y36123D01*
X60582Y36128D01*
X60573Y36129D01*
X60563Y36131D01*
X60555Y36132D01*
X60548Y36132D01*
X60541Y36133D01*
X60534D01*
X60520Y36132D01*
X60507Y36132D01*
X60484Y36127D01*
X60473Y36125D01*
X60464Y36122D01*
X60454Y36118D01*
X60447Y36115D01*
X60439Y36111D01*
X60432Y36108D01*
X60427Y36105D01*
X60422Y36102D01*
X60418Y36100D01*
X60415Y36098D01*
X60414Y36097D01*
X60413Y36096D01*
X60405Y36089D01*
X60396Y36081D01*
X60381Y36063D01*
X60369Y36044D01*
X60358Y36025D01*
X60354Y36016D01*
X60350Y36008D01*
X60347Y36001D01*
X60345Y35994D01*
X60342Y35989D01*
X60341Y35985D01*
X60340Y35982D01*
Y35982D01*
X60245Y36003D01*
X60251Y36022D01*
X60258Y36039D01*
X60265Y36055D01*
X60274Y36070D01*
X60282Y36084D01*
X60291Y36097D01*
X60299Y36108D01*
X60308Y36119D01*
X60316Y36128D01*
X60324Y36137D01*
X60330Y36144D01*
X60337Y36149D01*
X60342Y36154D01*
X60345Y36156D01*
X60348Y36159D01*
X60349Y36159D01*
X60363Y36169D01*
X60378Y36178D01*
X60393Y36185D01*
X60409Y36192D01*
X60424Y36197D01*
X60439Y36202D01*
X60454Y36205D01*
X60468Y36208D01*
X60481Y36210D01*
X60493Y36212D01*
X60504Y36214D01*
X60513Y36214D01*
X60521Y36215D01*
X60532D01*
X60549Y36214D01*
D02*
G37*
G36*
X60193Y35477D02*
X60092D01*
X60013Y35696D01*
X59708D01*
X59624Y35477D01*
X59515D01*
X59811Y36202D01*
X59916D01*
X60193Y35477D01*
D02*
G37*
G36*
X58592D02*
X58050D01*
Y35562D01*
X58495D01*
Y35809D01*
X58094D01*
Y35895D01*
X58495D01*
Y36117D01*
X58067D01*
Y36202D01*
X58592D01*
Y35477D01*
D02*
G37*
G36*
X57921D02*
X57468D01*
Y35562D01*
X57825D01*
Y36202D01*
X57921D01*
Y35477D01*
D02*
G37*
G36*
X57358D02*
X56904D01*
Y35562D01*
X57261D01*
Y36202D01*
X57358D01*
Y35477D01*
D02*
G37*
G36*
X56773D02*
X56677D01*
Y36202D01*
X56773D01*
Y35477D01*
D02*
G37*
G36*
X56587D02*
X56486D01*
X56407Y35696D01*
X56102D01*
X56018Y35477D01*
X55909D01*
X56206Y36202D01*
X56310D01*
X56587Y35477D01*
D02*
G37*
G36*
X54897D02*
X54796D01*
X54717Y35696D01*
X54412D01*
X54328Y35477D01*
X54219D01*
X54516Y36202D01*
X54620D01*
X54897Y35477D01*
D02*
G37*
%LPC*%
G36*
X57925Y38449D02*
X57918Y38447D01*
X57912Y38441D01*
X57908Y38423D01*
X57905Y38407D01*
X57902Y38396D01*
X57898Y38376D01*
X57907Y38363D01*
X57914Y38357D01*
X57918Y38353D01*
X57925Y38351D01*
X57940Y38350D01*
X57963Y38350D01*
X57975Y38347D01*
X57982Y38346D01*
X57997Y38345D01*
X58024Y38341D01*
X58043Y38334D01*
X58054Y38329D01*
X58093Y38329D01*
X58126Y38328D01*
X58137Y38326D01*
X58158Y38316D01*
X58173Y38314D01*
X58204Y38314D01*
X58216Y38309D01*
X58227Y38302D01*
X58251Y38300D01*
X58271Y38299D01*
X58282Y38288D01*
X58332Y38272D01*
X58352Y38331D01*
X58349Y38382D01*
X58336Y38388D01*
X58327Y38387D01*
X58320Y38387D01*
X58316Y38386D01*
X58314Y38382D01*
X58302Y38374D01*
X58259Y38372D01*
X58220Y38374D01*
X58212Y38382D01*
X58210Y38386D01*
X58203Y38386D01*
X58196Y38385D01*
X58194Y38391D01*
X58191Y38397D01*
X58185Y38402D01*
X58179Y38407D01*
X58173Y38418D01*
X58146Y38435D01*
X58117Y38428D01*
X58111Y38423D01*
X58100Y38415D01*
X58087Y38406D01*
X58078Y38400D01*
X58071Y38395D01*
X58063Y38392D01*
X58055Y38390D01*
X58050Y38387D01*
X58037Y38387D01*
X58020Y38394D01*
X58014Y38398D01*
X58007Y38401D01*
X57989Y38411D01*
X57974Y38424D01*
X57969Y38427D01*
X57963Y38430D01*
X57956Y38433D01*
X57949Y38438D01*
X57941Y38443D01*
X57933Y38447D01*
X57925Y38449D01*
D02*
G37*
G36*
X57231Y38374D02*
X57225Y38370D01*
X57210Y38359D01*
X57195Y38358D01*
X57165Y38354D01*
X57129Y38334D01*
X57113Y38321D01*
X57102Y38319D01*
X57096Y38318D01*
X57090Y38316D01*
X57084Y38314D01*
X57075Y38314D01*
X57063Y38313D01*
X57060Y38310D01*
X57054Y38301D01*
X57037Y38298D01*
X57021Y38296D01*
X57017Y38293D01*
X57013Y38288D01*
X57000Y38282D01*
X56992Y38278D01*
X56984Y38274D01*
X56977Y38270D01*
X56969Y38268D01*
X56962Y38266D01*
X56959Y38261D01*
X56956Y38256D01*
X56952Y38253D01*
X56944Y38249D01*
X56934Y38239D01*
X56924Y38230D01*
X56917Y38225D01*
X56913Y38222D01*
X56913Y38215D01*
X56912Y38206D01*
X56908Y38199D01*
X56902Y38191D01*
X56906Y38175D01*
X56916Y38147D01*
X56936Y38133D01*
X56953Y38117D01*
X56968Y38089D01*
X56971Y38082D01*
X56975Y38078D01*
X56980Y38071D01*
X56979Y38057D01*
X56977Y38045D01*
X56977Y38035D01*
X56974Y38021D01*
X56965Y38000D01*
X56972Y37963D01*
X57020Y37958D01*
X57034Y37962D01*
X57041Y37961D01*
X57047Y37959D01*
X57055Y37957D01*
X57076Y37953D01*
X57084Y37942D01*
X57104Y37928D01*
X57136Y37942D01*
X57142Y37946D01*
X57148Y37948D01*
X57154Y37949D01*
X57160Y37956D01*
X57164Y37960D01*
X57168Y37962D01*
X57175Y37973D01*
X57178Y38013D01*
X57181Y38073D01*
X57186Y38093D01*
X57189Y38100D01*
X57191Y38107D01*
X57195Y38125D01*
X57200Y38136D01*
X57205Y38144D01*
X57203Y38154D01*
X57201Y38160D01*
X57206Y38166D01*
X57213Y38177D01*
X57216Y38188D01*
X57218Y38191D01*
X57223Y38198D01*
X57228Y38205D01*
X57230Y38210D01*
X57233Y38218D01*
X57239Y38223D01*
X57250Y38232D01*
X57256Y38245D01*
X57257Y38251D01*
X57263Y38255D01*
X57269Y38259D01*
X57273Y38263D01*
X57277Y38267D01*
X57283Y38270D01*
X57293Y38273D01*
X57302Y38279D01*
X57306Y38282D01*
X57315Y38283D01*
X57324Y38285D01*
X57331Y38286D01*
X57355Y38286D01*
X57376Y38279D01*
X57389Y38271D01*
X57403Y38270D01*
X57419Y38300D01*
X57406Y38328D01*
X57401Y38329D01*
X57398Y38331D01*
X57386Y38343D01*
X57375Y38346D01*
X57361Y38349D01*
X57354Y38355D01*
X57352Y38357D01*
X57346Y38357D01*
X57338Y38358D01*
X57330Y38360D01*
X57322Y38361D01*
X57316Y38361D01*
X57298Y38358D01*
X57284Y38365D01*
X57275Y38373D01*
X57261D01*
X57248Y38373D01*
X57238Y38374D01*
X57231Y38374D01*
D02*
G37*
G36*
X58860Y38100D02*
X58856Y38096D01*
X58850Y38089D01*
X58841Y38088D01*
X58817Y38068D01*
X58821Y38038D01*
X58827Y38034D01*
X58831Y38031D01*
X58835Y38029D01*
X58838Y38027D01*
X58842Y38023D01*
X58846Y38017D01*
X58851Y38010D01*
X58856Y38003D01*
X58862Y37995D01*
X58867Y37985D01*
X58872Y37975D01*
X58876Y37969D01*
X58881Y37955D01*
X58883Y37917D01*
X58886Y37869D01*
X58891Y37853D01*
X58894Y37846D01*
X58895Y37840D01*
X58897Y37832D01*
X58906Y37823D01*
X58923Y37801D01*
X58930Y37778D01*
X58931Y37771D01*
X58936Y37764D01*
X58940Y37758D01*
X58942Y37756D01*
X58942Y37745D01*
X58943Y37718D01*
X58947Y37670D01*
X58965Y37648D01*
X58978Y37636D01*
X58983Y37628D01*
X58992Y37600D01*
X59005Y37580D01*
X59026Y37576D01*
X59037Y37591D01*
X59034Y37614D01*
X59040Y37628D01*
X59044Y37635D01*
X59047Y37644D01*
X59054Y37665D01*
X59079Y37693D01*
X59085Y37699D01*
X59092Y37703D01*
X59110Y37716D01*
X59112Y37728D01*
X59101Y37740D01*
X59093Y37757D01*
X59089Y37767D01*
X59085Y37775D01*
X59081Y37781D01*
X59078Y37788D01*
X59075Y37803D01*
X59069Y37828D01*
X59068Y37843D01*
X59071Y37857D01*
X59074Y37862D01*
X59077Y37869D01*
X59080Y37876D01*
X59081Y37882D01*
X59083Y37898D01*
X59088Y37909D01*
X59091Y37913D01*
X59094Y37918D01*
X59097Y37924D01*
X59101Y37930D01*
X59107Y37949D01*
X59097Y37972D01*
X59092Y37980D01*
X59088Y37987D01*
X59081Y37997D01*
X59068Y38012D01*
X59064Y38017D01*
X59061Y38022D01*
X59058Y38026D01*
X59054Y38029D01*
X59048Y38031D01*
X59043Y38034D01*
X59037Y38038D01*
X59029Y38040D01*
X59019Y38044D01*
X59017Y38051D01*
X59013Y38059D01*
X59001Y38058D01*
X58978Y38056D01*
X58961Y38063D01*
X58951Y38070D01*
X58937Y38075D01*
X58930Y38078D01*
X58921Y38083D01*
X58909Y38089D01*
X58895Y38091D01*
X58885Y38092D01*
X58879Y38093D01*
X58877Y38095D01*
X58874Y38095D01*
X58870Y38096D01*
X58867Y38098D01*
X58860Y38100D01*
D02*
G37*
G36*
X56865Y37363D02*
X56837Y37336D01*
X56813Y37313D01*
X56792Y37307D01*
X56778Y37304D01*
X56771Y37300D01*
X56746Y37292D01*
X56724Y37299D01*
X56719Y37304D01*
X56713Y37307D01*
X56695Y37317D01*
X56681Y37329D01*
X56659Y37351D01*
X56637Y37355D01*
X56632Y37353D01*
X56630Y37352D01*
X56624Y37348D01*
X56620Y37343D01*
X56619Y37340D01*
X56615Y37337D01*
X56611Y37332D01*
X56611Y37325D01*
X56611Y37316D01*
X56609Y37306D01*
X56607Y37288D01*
X56606Y37247D01*
X56604Y37204D01*
X56602Y37188D01*
X56596Y37149D01*
X56600Y37117D01*
X56603Y37108D01*
X56604Y37092D01*
X56605Y37074D01*
X56612Y37067D01*
X56618Y37061D01*
X56619Y37053D01*
X56620Y37045D01*
X56626Y37039D01*
X56631Y37032D01*
X56634Y37025D01*
X56638Y37013D01*
X56644Y37006D01*
X56648Y37005D01*
X56655Y37003D01*
X56664Y36999D01*
X56666Y36992D01*
X56671Y36983D01*
X56681Y36982D01*
X56700Y36969D01*
X56721Y36945D01*
X56735Y36929D01*
X56763Y36930D01*
X56778Y36933D01*
X56786Y36939D01*
X56793Y36945D01*
X56798Y36949D01*
X56816Y36961D01*
X56820Y36976D01*
X56822Y36986D01*
X56829Y36991D01*
X56842Y37000D01*
X56851Y37016D01*
X56854Y37024D01*
X56859Y37032D01*
X56863Y37039D01*
X56867Y37048D01*
X56871Y37055D01*
X56876Y37062D01*
X56879Y37067D01*
X56881Y37072D01*
X56882Y37076D01*
X56887Y37080D01*
X56891Y37083D01*
X56893Y37085D01*
X56895Y37089D01*
X56901Y37096D01*
X56907Y37103D01*
X56910Y37109D01*
X56912Y37118D01*
X56917Y37132D01*
X56922Y37149D01*
X56921Y37157D01*
X56920Y37165D01*
X56920Y37179D01*
X56921Y37195D01*
X56916Y37204D01*
X56912Y37213D01*
X56910Y37220D01*
X56910Y37228D01*
X56909Y37236D01*
X56907Y37249D01*
X56906Y37267D01*
X56905Y37286D01*
X56900Y37294D01*
X56893Y37310D01*
X56890Y37335D01*
X56890Y37345D01*
X56890Y37349D01*
X56888Y37351D01*
X56883Y37354D01*
X56878Y37358D01*
X56873Y37362D01*
X56865Y37363D01*
D02*
G37*
G36*
X58878Y37010D02*
X58865Y37008D01*
X58860Y37006D01*
X58858Y37005D01*
X58856Y37003D01*
X58854Y36996D01*
X58851Y36987D01*
X58846Y36979D01*
X58841Y36970D01*
X58838Y36953D01*
X58835Y36939D01*
X58833Y36930D01*
X58832Y36924D01*
X58833Y36917D01*
X58833Y36903D01*
X58829Y36886D01*
X58827Y36879D01*
X58829Y36872D01*
X58830Y36859D01*
X58826Y36845D01*
X58824Y36837D01*
X58823Y36826D01*
X58822Y36804D01*
X58821Y36770D01*
X58821Y36721D01*
X58836Y36690D01*
X58846Y36676D01*
X58853Y36672D01*
X58859Y36670D01*
X58864Y36666D01*
X58878Y36657D01*
X58914Y36656D01*
X58951Y36658D01*
X58962Y36665D01*
X58965Y36669D01*
X58970Y36671D01*
X58984Y36680D01*
X58994Y36694D01*
X58998Y36699D01*
X59007Y36704D01*
X59017Y36711D01*
X59028Y36720D01*
X59037Y36728D01*
X59044Y36732D01*
X59048Y36736D01*
X59052Y36741D01*
X59056Y36746D01*
X59059Y36750D01*
X59065Y36758D01*
X59067Y36767D01*
X59068Y36773D01*
X59072Y36779D01*
X59076Y36787D01*
X59080Y36795D01*
X59084Y36804D01*
X59090Y36808D01*
X59095Y36811D01*
X59098Y36816D01*
X59101Y36821D01*
X59106Y36824D01*
X59111Y36827D01*
X59113Y36830D01*
X59115Y36835D01*
X59118Y36840D01*
X59123Y36856D01*
X59116Y36877D01*
X59114Y36884D01*
X59112Y36889D01*
X59110Y36894D01*
X59104Y36901D01*
X59096Y36909D01*
X59095Y36918D01*
X59092Y36947D01*
X59082Y36973D01*
X59071Y36987D01*
X59052Y36985D01*
X59015Y36982D01*
X58991Y36985D01*
X58985Y36988D01*
X58969Y36989D01*
X58948Y36991D01*
X58933Y36999D01*
X58921Y37005D01*
X58910Y37006D01*
X58900Y37006D01*
X58891Y37008D01*
X58878Y37010D01*
D02*
G37*
%LPD*%
G36*
X58259Y38361D02*
X58258Y38358D01*
X58256Y38356D01*
X58253Y38359D01*
X58253Y38365D01*
X58257Y38367D01*
X58259Y38361D01*
D02*
G37*
%LPC*%
G36*
X57917Y37796D02*
X57902Y37793D01*
X57893Y37777D01*
X57893Y37768D01*
X57891Y37755D01*
X57890Y37740D01*
X57892Y37731D01*
X57894Y37724D01*
X57893Y37719D01*
X57887Y37696D01*
X57890Y37675D01*
X57897Y37659D01*
X57900Y37642D01*
X57902Y37629D01*
X57905Y37623D01*
X57909Y37617D01*
X57913Y37608D01*
X57924Y37587D01*
X57935Y37574D01*
X57939Y37572D01*
X57942Y37568D01*
X57947Y37565D01*
X57954Y37561D01*
X57960Y37557D01*
X57964Y37554D01*
X57969Y37548D01*
X57981Y37544D01*
X57988Y37543D01*
X57996Y37541D01*
X58005Y37538D01*
X58017Y37537D01*
X58028Y37535D01*
X58036Y37533D01*
X58083Y37530D01*
X58118Y37536D01*
X58122Y37539D01*
X58129Y37539D01*
X58136Y37539D01*
X58143Y37541D01*
X58151Y37544D01*
X58162Y37546D01*
X58174Y37548D01*
X58181Y37553D01*
X58187Y37558D01*
X58196Y37561D01*
X58204Y37565D01*
X58210Y37570D01*
X58214Y37573D01*
X58217Y37575D01*
X58229Y37583D01*
X58239Y37597D01*
X58241Y37603D01*
X58244Y37606D01*
X58247Y37609D01*
X58251Y37614D01*
X58255Y37619D01*
X58259Y37624D01*
X58265Y37637D01*
X58268Y37656D01*
X58269Y37664D01*
X58271Y37671D01*
X58274Y37678D01*
X58277Y37686D01*
X58279Y37693D01*
X58281Y37697D01*
X58282Y37700D01*
X58284Y37706D01*
X58286Y37716D01*
X58290Y37727D01*
X58293Y37740D01*
X58286Y37747D01*
X58279Y37752D01*
X58274Y37756D01*
X58252Y37760D01*
X58213Y37762D01*
X58195Y37762D01*
X58188Y37769D01*
X58182Y37776D01*
X58177Y37773D01*
X58173Y37770D01*
X58171Y37768D01*
X58167Y37766D01*
X58162Y37768D01*
X58154Y37774D01*
X58143Y37772D01*
X58136Y37769D01*
X58131Y37771D01*
X58126Y37774D01*
X58120Y37776D01*
X58114Y37778D01*
X58109Y37782D01*
X58097Y37787D01*
X58083Y37784D01*
X58075Y37779D01*
X58069Y37783D01*
X58058Y37787D01*
X58027Y37789D01*
X57999Y37790D01*
X57981Y37791D01*
X57966Y37791D01*
X57946Y37792D01*
X57925Y37794D01*
X57917Y37796D01*
D02*
G37*
G36*
X37422Y37194D02*
X37415D01*
X37403Y37194D01*
X37391Y37192D01*
X37379Y37189D01*
X37368Y37185D01*
X37347Y37176D01*
X37330Y37165D01*
X37323Y37160D01*
X37317Y37154D01*
X37311Y37149D01*
X37306Y37144D01*
X37302Y37140D01*
X37300Y37138D01*
X37298Y37136D01*
X37297Y37135D01*
X37289Y37123D01*
X37281Y37110D01*
X37274Y37097D01*
X37268Y37081D01*
X37264Y37067D01*
X37260Y37052D01*
X37254Y37022D01*
X37252Y37008D01*
X37251Y36995D01*
X37250Y36983D01*
X37249Y36973D01*
X37248Y36964D01*
Y36958D01*
Y36954D01*
Y36952D01*
X37249Y36930D01*
X37251Y36910D01*
X37253Y36890D01*
X37256Y36873D01*
X37260Y36857D01*
X37264Y36841D01*
X37268Y36828D01*
X37273Y36816D01*
X37279Y36805D01*
X37283Y36795D01*
X37287Y36788D01*
X37291Y36782D01*
X37294Y36777D01*
X37296Y36772D01*
X37298Y36771D01*
X37299Y36770D01*
X37308Y36760D01*
X37318Y36750D01*
X37329Y36742D01*
X37340Y36735D01*
X37350Y36729D01*
X37360Y36724D01*
X37369Y36721D01*
X37379Y36717D01*
X37387Y36715D01*
X37396Y36713D01*
X37403Y36711D01*
X37408Y36710D01*
X37414Y36710D01*
X37420D01*
X37436Y36710D01*
X37451Y36713D01*
X37464Y36717D01*
X37478Y36722D01*
X37490Y36729D01*
X37501Y36736D01*
X37511Y36743D01*
X37521Y36751D01*
X37529Y36759D01*
X37536Y36766D01*
X37542Y36773D01*
X37547Y36779D01*
X37551Y36784D01*
X37554Y36789D01*
X37555Y36791D01*
X37556Y36792D01*
X37561Y36802D01*
X37566Y36814D01*
X37571Y36826D01*
X37574Y36840D01*
X37579Y36867D01*
X37582Y36894D01*
X37584Y36907D01*
X37585Y36918D01*
X37586Y36929D01*
Y36938D01*
X37587Y36946D01*
Y36952D01*
Y36956D01*
Y36957D01*
X37586Y36978D01*
X37584Y36997D01*
X37582Y37016D01*
X37579Y37033D01*
X37575Y37049D01*
X37571Y37064D01*
X37566Y37076D01*
X37561Y37088D01*
X37557Y37098D01*
X37553Y37108D01*
X37549Y37115D01*
X37544Y37122D01*
X37541Y37127D01*
X37539Y37131D01*
X37538Y37132D01*
X37537Y37133D01*
X37526Y37144D01*
X37517Y37154D01*
X37506Y37161D01*
X37496Y37169D01*
X37486Y37175D01*
X37476Y37179D01*
X37466Y37183D01*
X37457Y37187D01*
X37448Y37189D01*
X37440Y37191D01*
X37433Y37193D01*
X37427Y37194D01*
X37422Y37194D01*
D02*
G37*
G36*
X41952Y37404D02*
X41762D01*
X41747Y37403D01*
X41732D01*
X41719Y37402D01*
X41707Y37402D01*
X41697Y37400D01*
X41687Y37399D01*
X41678Y37398D01*
X41670Y37396D01*
X41664Y37396D01*
X41659Y37395D01*
X41655Y37393D01*
X41652Y37392D01*
X41649D01*
X41648Y37391D01*
X41648D01*
X41634Y37386D01*
X41622Y37380D01*
X41612Y37372D01*
X41603Y37364D01*
X41597Y37357D01*
X41591Y37351D01*
X41589Y37348D01*
X41588Y37346D01*
X41581Y37334D01*
X41576Y37321D01*
X41572Y37307D01*
X41569Y37295D01*
X41568Y37285D01*
X41567Y37278D01*
Y37274D01*
Y37272D01*
Y37271D01*
Y37270D01*
X41568Y37254D01*
X41570Y37239D01*
X41575Y37226D01*
X41578Y37215D01*
X41582Y37205D01*
X41586Y37200D01*
X41589Y37195D01*
X41590Y37194D01*
X41599Y37183D01*
X41609Y37174D01*
X41620Y37167D01*
X41631Y37160D01*
X41640Y37156D01*
X41648Y37153D01*
X41653Y37151D01*
X41654Y37150D01*
X41655D01*
X41662Y37149D01*
X41670Y37147D01*
X41687Y37145D01*
X41704Y37143D01*
X41722Y37142D01*
X41738D01*
X41746Y37141D01*
X41952D01*
Y37404D01*
D02*
G37*
G36*
Y37038D02*
X41737D01*
X41722Y37037D01*
X41709Y37036D01*
X41697Y37036D01*
X41686Y37035D01*
X41676Y37033D01*
X41666Y37032D01*
X41658Y37031D01*
X41650Y37029D01*
X41643Y37028D01*
X41638Y37026D01*
X41633Y37025D01*
X41630Y37025D01*
X41627Y37024D01*
X41626Y37023D01*
X41625D01*
X41610Y37017D01*
X41596Y37009D01*
X41584Y37001D01*
X41574Y36992D01*
X41566Y36985D01*
X41560Y36979D01*
X41557Y36975D01*
X41556Y36973D01*
X41547Y36959D01*
X41541Y36945D01*
X41536Y36930D01*
X41533Y36918D01*
X41531Y36906D01*
X41529Y36897D01*
Y36894D01*
Y36891D01*
Y36890D01*
Y36889D01*
X41530Y36873D01*
X41532Y36860D01*
X41535Y36847D01*
X41538Y36836D01*
X41541Y36828D01*
X41545Y36821D01*
X41546Y36817D01*
X41547Y36815D01*
X41554Y36804D01*
X41562Y36795D01*
X41569Y36786D01*
X41575Y36779D01*
X41582Y36773D01*
X41587Y36770D01*
X41591Y36767D01*
X41591Y36767D01*
X41602Y36761D01*
X41613Y36756D01*
X41624Y36752D01*
X41635Y36749D01*
X41643Y36746D01*
X41651Y36744D01*
X41656Y36743D01*
X41658D01*
X41667Y36742D01*
X41679Y36741D01*
X41693Y36740D01*
X41705D01*
X41717Y36739D01*
X41952D01*
Y37038D01*
D02*
G37*
G36*
X40007Y37422D02*
X40000D01*
X39987Y37421D01*
X39973Y37419D01*
X39961Y37415D01*
X39949Y37411D01*
X39927Y37399D01*
X39918Y37393D01*
X39910Y37386D01*
X39901Y37380D01*
X39894Y37374D01*
X39888Y37368D01*
X39884Y37362D01*
X39880Y37357D01*
X39877Y37354D01*
X39876Y37351D01*
X39875Y37351D01*
X39866Y37336D01*
X39858Y37318D01*
X39852Y37298D01*
X39846Y37277D01*
X39841Y37253D01*
X39837Y37229D01*
X39831Y37182D01*
X39829Y37159D01*
X39827Y37137D01*
X39826Y37117D01*
X39826Y37100D01*
Y37093D01*
X39825Y37086D01*
Y37080D01*
Y37075D01*
Y37070D01*
Y37068D01*
Y37066D01*
Y37065D01*
X39826Y37027D01*
X39827Y36992D01*
X39830Y36959D01*
X39832Y36930D01*
X39837Y36904D01*
X39841Y36881D01*
X39845Y36861D01*
X39850Y36843D01*
X39855Y36827D01*
X39860Y36814D01*
X39864Y36803D01*
X39868Y36795D01*
X39871Y36788D01*
X39873Y36783D01*
X39875Y36781D01*
X39876Y36780D01*
X39885Y36767D01*
X39895Y36757D01*
X39905Y36748D01*
X39916Y36739D01*
X39927Y36733D01*
X39937Y36727D01*
X39946Y36722D01*
X39956Y36718D01*
X39965Y36716D01*
X39973Y36713D01*
X39980Y36712D01*
X39987Y36710D01*
X39992D01*
X39995Y36710D01*
X39999D01*
X40012Y36710D01*
X40025Y36713D01*
X40038Y36716D01*
X40049Y36721D01*
X40070Y36732D01*
X40079Y36739D01*
X40089Y36745D01*
X40096Y36751D01*
X40103Y36758D01*
X40109Y36764D01*
X40113Y36769D01*
X40118Y36773D01*
X40120Y36777D01*
X40122Y36779D01*
X40123Y36780D01*
X40131Y36795D01*
X40139Y36812D01*
X40146Y36833D01*
X40152Y36855D01*
X40157Y36878D01*
X40161Y36902D01*
X40167Y36949D01*
X40169Y36972D01*
X40170Y36994D01*
X40171Y37014D01*
X40172Y37031D01*
Y37038D01*
X40173Y37045D01*
Y37051D01*
Y37056D01*
Y37060D01*
Y37063D01*
Y37065D01*
Y37065D01*
X40172Y37104D01*
X40170Y37139D01*
X40168Y37172D01*
X40164Y37201D01*
X40160Y37228D01*
X40156Y37252D01*
X40151Y37273D01*
X40146Y37293D01*
X40141Y37309D01*
X40135Y37323D01*
X40131Y37334D01*
X40127Y37343D01*
X40124Y37351D01*
X40121Y37356D01*
X40119Y37358D01*
X40118Y37359D01*
X40110Y37370D01*
X40101Y37380D01*
X40091Y37388D01*
X40081Y37396D01*
X40072Y37402D01*
X40062Y37407D01*
X40052Y37411D01*
X40043Y37414D01*
X40026Y37419D01*
X40019Y37420D01*
X40012Y37421D01*
X40007Y37422D01*
D02*
G37*
G36*
X59866Y36126D02*
X59862Y36115D01*
X59859Y36103D01*
X59850Y36078D01*
X59842Y36052D01*
X59833Y36028D01*
X59830Y36018D01*
X59826Y36008D01*
X59823Y35999D01*
X59820Y35991D01*
X59818Y35984D01*
X59816Y35979D01*
X59815Y35977D01*
X59814Y35975D01*
X59738Y35774D01*
X59986D01*
X59905Y35987D01*
X59896Y36013D01*
X59889Y36038D01*
X59882Y36062D01*
X59879Y36072D01*
X59876Y36083D01*
X59874Y36092D01*
X59872Y36100D01*
X59870Y36108D01*
X59869Y36114D01*
X59867Y36119D01*
X59867Y36123D01*
X59866Y36125D01*
Y36126D01*
D02*
G37*
G36*
X56260D02*
X56257Y36115D01*
X56253Y36103D01*
X56245Y36078D01*
X56236Y36052D01*
X56228Y36028D01*
X56224Y36018D01*
X56221Y36008D01*
X56217Y35999D01*
X56214Y35991D01*
X56212Y35984D01*
X56210Y35979D01*
X56209Y35977D01*
X56208Y35975D01*
X56132Y35774D01*
X56380D01*
X56299Y35987D01*
X56291Y36013D01*
X56283Y36038D01*
X56276Y36062D01*
X56273Y36072D01*
X56270Y36083D01*
X56268Y36092D01*
X56266Y36100D01*
X56264Y36108D01*
X56263Y36114D01*
X56262Y36119D01*
X56261Y36123D01*
X56260Y36125D01*
Y36126D01*
D02*
G37*
G36*
X54570D02*
X54567Y36115D01*
X54563Y36103D01*
X54555Y36078D01*
X54546Y36052D01*
X54538Y36028D01*
X54534Y36018D01*
X54531Y36008D01*
X54527Y35999D01*
X54524Y35991D01*
X54522Y35984D01*
X54520Y35979D01*
X54519Y35977D01*
X54518Y35975D01*
X54442Y35774D01*
X54690D01*
X54609Y35987D01*
X54601Y36013D01*
X54593Y36038D01*
X54586Y36062D01*
X54583Y36072D01*
X54580Y36083D01*
X54578Y36092D01*
X54576Y36100D01*
X54574Y36108D01*
X54573Y36114D01*
X54572Y36119D01*
X54571Y36123D01*
X54570Y36125D01*
Y36126D01*
D02*
G37*
%LPD*%
D11*
X48712Y36579D02*
G03*
X48713Y38350I-3J886D01*
G01*
X46232Y38351D02*
G03*
X46232Y36579I3J-886D01*
G01*
X46213Y38173D02*
G03*
X46212Y36756I-0J-709D01*
G01*
X48732Y36756D02*
G03*
X48653Y38174I-42J709D01*
G01*
X50732Y38705D02*
G03*
X50610Y38583I0J-122D01*
G01*
X51169D02*
G03*
X51047Y38705I-122J0D01*
G01*
X50612Y37726D02*
G03*
X50734Y37604I122J0D01*
G01*
X51049D02*
G03*
X51171Y37726I0J122D01*
G01*
X51628Y38711D02*
G03*
X51506Y38589I0J-122D01*
G01*
X52065D02*
G03*
X51943Y38711I-122J0D01*
G01*
X51508Y37732D02*
G03*
X51630Y37610I122J0D01*
G01*
X51945D02*
G03*
X52067Y37732I0J122D01*
G01*
X47722Y37465D02*
X47872D01*
X47722D02*
Y37715D01*
Y37215D02*
Y37465D01*
X47072D02*
X47222D01*
Y37715D01*
Y37215D02*
Y37465D01*
X47372Y37215D02*
X47572D01*
Y37715D01*
X47372D02*
X47572D01*
X47372Y37215D02*
Y37715D01*
X46213Y36756D02*
X48732D01*
X46213Y38173D02*
X48654D01*
X46232Y36579D02*
X48713D01*
X46232Y38350D02*
X48713D01*
X50613Y37726D02*
Y38041D01*
X50734Y37604D02*
X51049D01*
X51171Y37726D02*
Y38041D01*
X50610Y38268D02*
Y38583D01*
X51169Y38268D02*
Y38583D01*
X50732Y38705D02*
X51047D01*
X51630Y37610D02*
X51945D01*
X51508Y37732D02*
Y38047D01*
X52067Y37732D02*
Y38047D01*
X51506Y38274D02*
Y38589D01*
X51628Y38711D02*
X51943D01*
X52065Y38274D02*
Y38589D01*
D12*
X46986Y40129D02*
Y41524D01*
Y40129D02*
X50983D01*
Y41524D01*
X46986D02*
X50983D01*
D49*
X47293Y41228D02*
G03*
X47293Y41228I-59J0D01*
G01*
X47005Y41958D02*
G03*
X47005Y41958I-59J0D01*
G01*
M02*
