G04*
G04 #@! TF.GenerationSoftware,Altium Limited,Altium Designer,19.0.4 (130)*
G04*
G04 Layer_Color=255*
%FSLAX24Y24*%
%MOIN*%
G70*
G01*
G75*
%ADD38C,0.0591*%
%ADD39R,0.0591X0.0591*%
%ADD40C,0.1260*%
%ADD41C,0.0669*%
%ADD42C,0.1654*%
%ADD44O,0.0220X0.0687*%
%ADD45R,0.0354X0.0315*%
D38*
X48433Y37465D02*
D03*
D39*
X46512D02*
D03*
D40*
X53692Y44625D02*
D03*
X58865Y44625D02*
D03*
X46217Y44625D02*
D03*
X51390Y44625D02*
D03*
X38742Y44625D02*
D03*
X43915Y44625D02*
D03*
D41*
X57664Y43558D02*
D03*
X56679D02*
D03*
X55892D02*
D03*
X54908D02*
D03*
X50189D02*
D03*
X49204D02*
D03*
X48417D02*
D03*
X47433D02*
D03*
X42714D02*
D03*
X41729D02*
D03*
X40942D02*
D03*
X39958D02*
D03*
D42*
X63458Y36392D02*
D03*
Y45649D02*
D03*
X34493Y45686D02*
D03*
Y36415D02*
D03*
D44*
X47234Y41958D02*
D03*
X47734D02*
D03*
X48234D02*
D03*
X48734D02*
D03*
X49234D02*
D03*
X49734D02*
D03*
X50234D02*
D03*
X50734D02*
D03*
X47234Y39696D02*
D03*
X47734D02*
D03*
X48234D02*
D03*
X48734D02*
D03*
X49234D02*
D03*
X49734D02*
D03*
X50234D02*
D03*
X50734D02*
D03*
D45*
X50890Y37882D02*
D03*
Y38433D02*
D03*
X51787Y37882D02*
D03*
Y38433D02*
D03*
M02*
