G04*
G04 #@! TF.GenerationSoftware,Altium Limited,Altium Designer,19.0.4 (130)*
G04*
G04 Layer_Color=8421504*
%FSLAX24Y24*%
%MOIN*%
G70*
G01*
G75*
%ADD14R,0.0571X0.0236*%
%ADD15R,0.0571X0.0118*%
%ADD16R,0.0571X0.0709*%
%ADD17R,0.0472X0.0709*%
%ADD18R,0.0315X0.0315*%
%ADD19R,0.0315X0.0354*%
%ADD20R,0.1421X0.0496*%
G36*
X34433Y46420D02*
X34289Y46395D01*
X34189Y46358D01*
X34052Y46279D01*
X33938Y46172D01*
X33833Y46017D01*
X33772Y45837D01*
X33504Y45835D01*
X33521Y45920D01*
X33550Y46022D01*
X33582Y46099D01*
X33618Y46171D01*
X33667Y46249D01*
X33716Y46318D01*
X33779Y46386D01*
X33850Y46451D01*
X33922Y46506D01*
X34013Y46563D01*
X34091Y46601D01*
X34175Y46633D01*
X34289Y46667D01*
X34400Y46683D01*
X34434D01*
X34433Y46420D01*
D02*
G37*
G36*
X63399Y46384D02*
X63255Y46359D01*
X63155Y46322D01*
X63018Y46243D01*
X62904Y46136D01*
X62799Y45981D01*
X62738Y45800D01*
X62470Y45799D01*
X62486Y45883D01*
X62515Y45986D01*
X62548Y46062D01*
X62583Y46134D01*
X62632Y46212D01*
X62682Y46282D01*
X62745Y46350D01*
X62815Y46414D01*
X62888Y46470D01*
X62979Y46527D01*
X63057Y46565D01*
X63141Y46597D01*
X63255Y46631D01*
X63366Y46647D01*
X63400D01*
X63399Y46384D01*
D02*
G37*
G36*
X34727Y46658D02*
X34829Y46629D01*
X34906Y46596D01*
X34978Y46561D01*
X35056Y46512D01*
X35125Y46462D01*
X35193Y46399D01*
X35258Y46329D01*
X35313Y46256D01*
X35370Y46165D01*
X35408Y46087D01*
X35440Y46003D01*
X35474Y45889D01*
X35490Y45778D01*
Y45744D01*
X35227Y45745D01*
X35202Y45889D01*
X35165Y45989D01*
X35086Y46126D01*
X34979Y46240D01*
X34824Y46345D01*
X34644Y46406D01*
X34642Y46674D01*
X34727Y46658D01*
D02*
G37*
G36*
X63693Y46621D02*
X63795Y46592D01*
X63872Y46560D01*
X63944Y46524D01*
X64022Y46475D01*
X64091Y46426D01*
X64159Y46363D01*
X64224Y46292D01*
X64279Y46220D01*
X64336Y46129D01*
X64374Y46051D01*
X64406Y45967D01*
X64440Y45853D01*
X64456Y45742D01*
Y45708D01*
X64193Y45709D01*
X64168Y45853D01*
X64131Y45953D01*
X64052Y46090D01*
X63945Y46204D01*
X63790Y46309D01*
X63610Y46369D01*
X63608Y46638D01*
X63693Y46621D01*
D02*
G37*
G36*
X33758Y45626D02*
X33783Y45482D01*
X33820Y45382D01*
X33899Y45245D01*
X34006Y45131D01*
X34161Y45026D01*
X34342Y44965D01*
X34343Y44697D01*
X34259Y44714D01*
X34156Y44743D01*
X34080Y44775D01*
X34008Y44811D01*
X33930Y44860D01*
X33860Y44909D01*
X33792Y44972D01*
X33728Y45043D01*
X33672Y45115D01*
X33615Y45206D01*
X33577Y45284D01*
X33545Y45368D01*
X33511Y45482D01*
X33495Y45593D01*
Y45627D01*
X33758Y45626D01*
D02*
G37*
G36*
X35465Y45452D02*
X35436Y45349D01*
X35403Y45273D01*
X35368Y45201D01*
X35319Y45123D01*
X35269Y45053D01*
X35206Y44985D01*
X35136Y44921D01*
X35063Y44865D01*
X34972Y44808D01*
X34894Y44770D01*
X34810Y44738D01*
X34696Y44704D01*
X34585Y44688D01*
X34551D01*
X34552Y44951D01*
X34696Y44976D01*
X34796Y45013D01*
X34933Y45092D01*
X35047Y45199D01*
X35152Y45354D01*
X35213Y45535D01*
X35481Y45536D01*
X35465Y45452D01*
D02*
G37*
G36*
X62724Y45589D02*
X62749Y45445D01*
X62786Y45345D01*
X62865Y45208D01*
X62972Y45094D01*
X63127Y44989D01*
X63307Y44929D01*
X63309Y44660D01*
X63224Y44677D01*
X63122Y44706D01*
X63045Y44738D01*
X62973Y44774D01*
X62895Y44823D01*
X62826Y44872D01*
X62758Y44935D01*
X62693Y45006D01*
X62638Y45078D01*
X62581Y45169D01*
X62543Y45247D01*
X62511Y45331D01*
X62477Y45445D01*
X62461Y45556D01*
Y45590D01*
X62724Y45589D01*
D02*
G37*
G36*
X64431Y45415D02*
X64402Y45312D01*
X64369Y45236D01*
X64334Y45164D01*
X64285Y45086D01*
X64235Y45016D01*
X64172Y44948D01*
X64102Y44884D01*
X64029Y44828D01*
X63938Y44771D01*
X63860Y44733D01*
X63776Y44701D01*
X63662Y44667D01*
X63551Y44651D01*
X63517D01*
X63518Y44914D01*
X63662Y44939D01*
X63762Y44976D01*
X63899Y45055D01*
X64013Y45162D01*
X64118Y45317D01*
X64179Y45498D01*
X64447Y45499D01*
X64431Y45415D01*
D02*
G37*
G36*
X60677Y41589D02*
Y41274D01*
X60657Y41254D01*
X60346D01*
X60326Y41274D01*
Y41364D01*
X60476D01*
Y41494D01*
X60326D01*
Y41589D01*
X60346Y41609D01*
X60657D01*
X60677Y41589D01*
D02*
G37*
G36*
X60051D02*
Y41494D01*
X59905D01*
Y41364D01*
X60051D01*
Y41274D01*
X60031Y41254D01*
X59716D01*
X59696Y41274D01*
Y41589D01*
X59716Y41609D01*
X60031D01*
X60051Y41589D01*
D02*
G37*
G36*
X38147Y41205D02*
Y40890D01*
X38127Y40870D01*
X37816D01*
X37796Y40890D01*
Y40980D01*
X37946D01*
Y41109D01*
X37796D01*
Y41205D01*
X37816Y41224D01*
X38127D01*
X38147Y41205D01*
D02*
G37*
G36*
X37521D02*
Y41109D01*
X37375D01*
Y40980D01*
X37521D01*
Y40890D01*
X37501Y40870D01*
X37186D01*
X37166Y40890D01*
Y41205D01*
X37186Y41224D01*
X37501D01*
X37521Y41205D01*
D02*
G37*
G36*
X38147Y40465D02*
Y40150D01*
X38127Y40130D01*
X37812D01*
X37792Y40150D01*
Y40245D01*
X37938D01*
Y40375D01*
X37792D01*
Y40465D01*
X37812Y40484D01*
X38127D01*
X38147Y40465D01*
D02*
G37*
G36*
X37517D02*
Y40375D01*
X37367D01*
Y40245D01*
X37517D01*
Y40150D01*
X37497Y40130D01*
X37186D01*
X37166Y40150D01*
Y40465D01*
X37186Y40484D01*
X37497D01*
X37517Y40465D01*
D02*
G37*
G36*
X60677Y40409D02*
Y40094D01*
X60657Y40075D01*
X60342D01*
X60322Y40094D01*
Y40190D01*
X60468D01*
Y40320D01*
X60322D01*
Y40409D01*
X60342Y40429D01*
X60657D01*
X60677Y40409D01*
D02*
G37*
G36*
X60047D02*
Y40320D01*
X59897D01*
Y40190D01*
X60047D01*
Y40094D01*
X60027Y40075D01*
X59716D01*
X59696Y40094D01*
Y40409D01*
X59716Y40429D01*
X60027D01*
X60047Y40409D01*
D02*
G37*
G36*
X38147Y39811D02*
Y39496D01*
X38127Y39476D01*
X37816D01*
X37796Y39496D01*
Y39586D01*
X37946D01*
Y39716D01*
X37796D01*
Y39811D01*
X37816Y39831D01*
X38127D01*
X38147Y39811D01*
D02*
G37*
G36*
X37521D02*
Y39716D01*
X37375D01*
Y39586D01*
X37521D01*
Y39496D01*
X37501Y39476D01*
X37186D01*
X37166Y39496D01*
Y39811D01*
X37186Y39831D01*
X37501D01*
X37521Y39811D01*
D02*
G37*
G36*
X34433Y37150D02*
X34289Y37125D01*
X34189Y37088D01*
X34052Y37009D01*
X33938Y36902D01*
X33833Y36747D01*
X33772Y36566D01*
X33504Y36565D01*
X33521Y36649D01*
X33550Y36752D01*
X33582Y36828D01*
X33618Y36900D01*
X33667Y36978D01*
X33716Y37048D01*
X33779Y37116D01*
X33850Y37180D01*
X33922Y37236D01*
X34013Y37293D01*
X34091Y37331D01*
X34175Y37363D01*
X34289Y37397D01*
X34400Y37413D01*
X34434D01*
X34433Y37150D01*
D02*
G37*
G36*
X63399Y37126D02*
X63255Y37101D01*
X63155Y37064D01*
X63018Y36985D01*
X62904Y36878D01*
X62799Y36723D01*
X62738Y36543D01*
X62470Y36541D01*
X62486Y36626D01*
X62515Y36728D01*
X62548Y36805D01*
X62583Y36877D01*
X62632Y36955D01*
X62682Y37024D01*
X62745Y37092D01*
X62815Y37157D01*
X62888Y37212D01*
X62979Y37269D01*
X63057Y37307D01*
X63141Y37339D01*
X63255Y37373D01*
X63366Y37389D01*
X63400D01*
X63399Y37126D01*
D02*
G37*
G36*
X34727Y37387D02*
X34829Y37358D01*
X34906Y37326D01*
X34978Y37290D01*
X35056Y37241D01*
X35125Y37192D01*
X35193Y37129D01*
X35258Y37058D01*
X35313Y36986D01*
X35370Y36895D01*
X35408Y36817D01*
X35440Y36733D01*
X35474Y36619D01*
X35490Y36508D01*
Y36474D01*
X35227Y36475D01*
X35202Y36619D01*
X35165Y36719D01*
X35086Y36856D01*
X34979Y36970D01*
X34824Y37075D01*
X34644Y37136D01*
X34642Y37404D01*
X34727Y37387D01*
D02*
G37*
G36*
X63693Y37364D02*
X63795Y37335D01*
X63872Y37302D01*
X63944Y37267D01*
X64022Y37218D01*
X64091Y37168D01*
X64159Y37105D01*
X64224Y37035D01*
X64279Y36962D01*
X64336Y36871D01*
X64374Y36793D01*
X64406Y36709D01*
X64440Y36595D01*
X64456Y36484D01*
Y36450D01*
X64193Y36451D01*
X64168Y36595D01*
X64131Y36695D01*
X64052Y36832D01*
X63945Y36946D01*
X63790Y37051D01*
X63610Y37112D01*
X63608Y37380D01*
X63693Y37364D01*
D02*
G37*
G36*
X33758Y36356D02*
X33783Y36212D01*
X33820Y36112D01*
X33899Y35975D01*
X34006Y35861D01*
X34161Y35756D01*
X34342Y35695D01*
X34343Y35427D01*
X34259Y35443D01*
X34156Y35472D01*
X34080Y35505D01*
X34008Y35540D01*
X33930Y35589D01*
X33860Y35639D01*
X33792Y35702D01*
X33728Y35772D01*
X33672Y35845D01*
X33615Y35936D01*
X33577Y36014D01*
X33545Y36098D01*
X33511Y36212D01*
X33495Y36323D01*
Y36357D01*
X33758Y36356D01*
D02*
G37*
G36*
X35465Y36181D02*
X35436Y36079D01*
X35403Y36002D01*
X35368Y35930D01*
X35319Y35852D01*
X35269Y35783D01*
X35206Y35715D01*
X35136Y35650D01*
X35063Y35595D01*
X34972Y35538D01*
X34894Y35500D01*
X34810Y35468D01*
X34696Y35434D01*
X34585Y35418D01*
X34551D01*
X34552Y35681D01*
X34696Y35706D01*
X34796Y35743D01*
X34933Y35822D01*
X35047Y35929D01*
X35152Y36084D01*
X35213Y36264D01*
X35481Y36266D01*
X35465Y36181D01*
D02*
G37*
G36*
X62724Y36332D02*
X62749Y36188D01*
X62786Y36088D01*
X62865Y35951D01*
X62972Y35837D01*
X63127Y35732D01*
X63307Y35671D01*
X63309Y35403D01*
X63224Y35420D01*
X63122Y35449D01*
X63045Y35481D01*
X62973Y35517D01*
X62895Y35566D01*
X62826Y35615D01*
X62758Y35678D01*
X62693Y35749D01*
X62638Y35821D01*
X62581Y35912D01*
X62543Y35990D01*
X62511Y36074D01*
X62477Y36188D01*
X62461Y36299D01*
Y36333D01*
X62724Y36332D01*
D02*
G37*
G36*
X64431Y36158D02*
X64402Y36055D01*
X64369Y35979D01*
X64334Y35907D01*
X64285Y35829D01*
X64235Y35759D01*
X64172Y35691D01*
X64102Y35627D01*
X64029Y35571D01*
X63938Y35514D01*
X63860Y35476D01*
X63776Y35444D01*
X63662Y35410D01*
X63551Y35394D01*
X63517D01*
X63518Y35657D01*
X63662Y35682D01*
X63762Y35719D01*
X63899Y35798D01*
X64013Y35905D01*
X64118Y36060D01*
X64179Y36241D01*
X64447Y36242D01*
X64431Y36158D01*
D02*
G37*
D14*
X61434Y39463D02*
D03*
Y42022D02*
D03*
Y39778D02*
D03*
Y41707D02*
D03*
X36431Y42071D02*
D03*
Y39512D02*
D03*
Y41756D02*
D03*
Y39827D02*
D03*
D15*
X61434Y40054D02*
D03*
Y40250D02*
D03*
Y40447D02*
D03*
Y40644D02*
D03*
Y40841D02*
D03*
Y41038D02*
D03*
Y41235D02*
D03*
Y41432D02*
D03*
X36431Y41481D02*
D03*
Y41284D02*
D03*
Y41087D02*
D03*
Y40890D02*
D03*
Y40693D02*
D03*
Y40496D02*
D03*
Y40300D02*
D03*
Y40103D02*
D03*
D16*
X61795Y38746D02*
D03*
Y42739D02*
D03*
X36071Y42788D02*
D03*
Y38796D02*
D03*
D17*
X63440Y38746D02*
D03*
Y42739D02*
D03*
X34425Y42788D02*
D03*
Y38796D02*
D03*
D18*
X37954Y37386D02*
D03*
X37284D02*
D03*
D19*
X60459Y39512D02*
D03*
X59908D02*
D03*
X37378Y41756D02*
D03*
X37929D02*
D03*
D20*
X55431Y40592D02*
D03*
X58026D02*
D03*
X53076Y40592D02*
D03*
X50481D02*
D03*
X45181Y40592D02*
D03*
X47776D02*
D03*
X42776Y40592D02*
D03*
X40181D02*
D03*
M02*
