M48
;Layer_Color=9474304
;FILE_FORMAT=2:4
INCH,TZ
;TYPE=PLATED
T1F00S00C0.0079
T2F00S00C0.0354
T3F00S00C0.0433
T4F00S00C0.0906
T5F00S00C0.1299
%
T01
X37269Y36179
X37360Y39189
X36858Y38992
X36906Y40418
Y40772
X39346Y39764
X41478
X42024Y38244
X39966
X44905Y37724
Y36528
X46134Y36299
X46143Y38528
X45835Y39764
X43955Y39748
X43535Y42173
X44843Y42213
X46795Y41732
X38780Y42559
X47818Y41343
X48920Y41266
X50039Y41260
X51778Y42291
X53835
X54276Y39732
X55431Y39107
X56728Y39714
X59268Y40236
Y41945
X58134Y42386
X61220Y42457
X60984Y41134
Y40745
X61008Y39031
X60457Y39110
X54701Y37890
X52465Y37866
X53076Y39107
X51961Y39732
X49772Y37737
Y36528
X48256Y36299
X48260Y38528
T02
X46512Y37465
X48433
T03
X39958Y43558
X40942
X41729
X42714
X47433
X48417
X49204
X50189
X54908
X55892
X56679
X57664
T04
X38742Y44625
X43915
X46217
X51390
X53692
X58865
T05
X34493Y36415
Y45686
X63458Y45649
Y36392
M30
